<?xml version="1.0" encoding="UTF-8" standalone="no"?><svg xmlns="http://www.w3.org/2000/svg" xmlns:xlink="http://www.w3.org/1999/xlink" contentScriptType="application/ecmascript" contentStyleType="text/css" height="229px" preserveAspectRatio="none" style="width:207px;height:229px;" version="1.1" viewBox="0 0 207 229" width="207px" zoomAndPan="magnify"><defs><filter height="300%" id="fldj03xootyzi" width="300%" x="-1" y="-1"><feGaussianBlur result="blurOut" stdDeviation="2.0"/><feColorMatrix in="blurOut" result="blurOut2" type="matrix" values="0 0 0 0 0 0 0 0 0 0 0 0 0 0 0 0 0 0 .4 0"/><feOffset dx="4.0" dy="4.0" in="blurOut2" result="blurOut3"/><feBlend in="SourceGraphic" in2="blurOut3" mode="normal"/></filter></defs><g><ellipse cx="65.5" cy="20" fill="#000000" filter="url(#fldj03xootyzi)" rx="10" ry="10" style="stroke: none; stroke-width: 1.0;"/><rect fill="#FFFAFA" filter="url(#fldj03xootyzi)" height="34.0977" rx="12.5" ry="12.5" style="stroke: #483D8B; stroke-width: 1.5;" width="111" x="10" y="98.4614"/><text fill="#000000" font-family="Lucida Sans Typewriter" font-size="12" lengthAdjust="spacingAndGlyphs" textLength="91" x="20" y="120.0278">kaufe Produkt</text><polygon fill="#F8F8FF" filter="url(#fldj03xootyzi)" points="65.5,50,65.5,50,77.5,62,65.5,74,65.5,74,53.5,62,65.5,50" style="stroke: #483D8B; stroke-width: 1.5;"/><text fill="#000000" font-family="Lucida Sans Typewriter" font-size="11" lengthAdjust="spacingAndGlyphs" textLength="126" x="69.5" y="84.6025">[Geld ausreichend]</text><text fill="#000000" font-family="Lucida Sans Typewriter" font-size="11" lengthAdjust="spacingAndGlyphs" textLength="42" x="77.5" y="59.6797">[else]</text><polygon fill="#F8F8FF" filter="url(#fldj03xootyzi)" points="65.5,152.5591,77.5,164.5591,65.5,176.5591,53.5,164.5591,65.5,152.5591" style="stroke: #483D8B; stroke-width: 1.5;"/><ellipse cx="65.5" cy="207.5591" fill="#FFFFFF" filter="url(#fldj03xootyzi)" rx="11" ry="11" style="stroke: #000000; stroke-width: 1.0;"/><ellipse cx="65.5" cy="207.5591" fill="#000000" rx="6" ry="6" style="stroke: #7F7F7F; stroke-width: 1.0;"/><line style="stroke: #483D8B; stroke-width: 1.5;" x1="65.5" x2="65.5" y1="74" y2="98.4614"/><polygon fill="#483D8B" points="61.5,88.4614,65.5,98.4614,69.5,88.4614,65.5,92.4614" style="stroke: #483D8B; stroke-width: 1.0;"/><line style="stroke: #483D8B; stroke-width: 1.5;" x1="77.5" x2="131" y1="62" y2="62"/><polygon fill="#483D8B" points="127,105.5103,131,115.5103,135,105.5103,131,109.5103" style="stroke: #483D8B; stroke-width: 1.5;"/><line style="stroke: #483D8B; stroke-width: 1.5;" x1="131" x2="131" y1="62" y2="164.5591"/><line style="stroke: #483D8B; stroke-width: 1.5;" x1="131" x2="77.5" y1="164.5591" y2="164.5591"/><polygon fill="#483D8B" points="87.5,160.5591,77.5,164.5591,87.5,168.5591,83.5,164.5591" style="stroke: #483D8B; stroke-width: 1.0;"/><line style="stroke: #483D8B; stroke-width: 1.5;" x1="65.5" x2="65.5" y1="132.5591" y2="152.5591"/><polygon fill="#483D8B" points="61.5,142.5591,65.5,152.5591,69.5,142.5591,65.5,146.5591" style="stroke: #483D8B; stroke-width: 1.0;"/><line style="stroke: #483D8B; stroke-width: 1.5;" x1="65.5" x2="65.5" y1="30" y2="50"/><polygon fill="#483D8B" points="61.5,40,65.5,50,69.5,40,65.5,44" style="stroke: #483D8B; stroke-width: 1.0;"/><line style="stroke: #483D8B; stroke-width: 1.5;" x1="65.5" x2="65.5" y1="176.5591" y2="196.5591"/><polygon fill="#483D8B" points="61.5,186.5591,65.5,196.5591,69.5,186.5591,65.5,190.5591" style="stroke: #483D8B; stroke-width: 1.0;"/><!--
@startuml
skinparam DefaultFontName "Lucida Sans Typewriter"

skinparam Activity{
    BackgroundColor snow
    BorderColor DarkSlateBlue
    DiamondBackgroundColor ghostwhite
    DiamondBorderColor DarkSlateBlue

}
skinparam Note{
    BorderColor DarkSlateBlue
    BackgroundColor LightYellow
}

skinparam ArrowColor DarkSlateBlue


start
if() then ([Geld ausreichend])
:kaufe Produkt;
else ([else])
endif
stop
	
@enduml

PlantUML version 1.2019.09(Mon Aug 26 18:19:51 CEST 2019)
(GPL source distribution)
Java Runtime: Java(TM) SE Runtime Environment
JVM: Java HotSpot(TM) 64-Bit Server VM
Java Version: 11.0.4+10-LTS
Operating System: Windows 10
OS Version: 10.0
Default Encoding: Cp1252
Language: de
Country: DE
--></g></svg>