<?xml version="1.0" encoding="UTF-8" standalone="no"?><svg xmlns="http://www.w3.org/2000/svg" xmlns:xlink="http://www.w3.org/1999/xlink" contentScriptType="application/ecmascript" contentStyleType="text/css" height="267px" preserveAspectRatio="none" style="width:465px;height:267px;" version="1.1" viewBox="0 0 465 267" width="465px" zoomAndPan="magnify"><defs><filter height="300%" id="f1j0knr7qmikkb" width="300%" x="-1" y="-1"><feGaussianBlur result="blurOut" stdDeviation="2.0"/><feColorMatrix in="blurOut" result="blurOut2" type="matrix" values="0 0 0 0 0 0 0 0 0 0 0 0 0 0 0 0 0 0 .4 0"/><feOffset dx="4.0" dy="4.0" in="blurOut2" result="blurOut3"/><feBlend in="SourceGraphic" in2="blurOut3" mode="normal"/></filter></defs><g><path d="M10,10 L10,96.3623 L231,96.3623 L231,20 L221,10 L10,10 " fill="#FFFFE0" filter="url(#f1j0knr7qmikkb)" style="stroke: #483D8B; stroke-width: 1.0;"/><path d="M221,10 L221,20 L231,20 L221,10 " fill="#FFFFE0" style="stroke: #483D8B; stroke-width: 1.0;"/><text fill="#000000" font-family="Lucida Sans Typewriter" font-size="13" lengthAdjust="spacingAndGlyphs" textLength="200" x="16" y="27.5303">Komplexere Entscheidungen</text><text fill="#000000" font-family="Lucida Sans Typewriter" font-size="13" lengthAdjust="spacingAndGlyphs" textLength="176" x="16" y="42.8027">werden durch Notiz mit</text><text fill="#000000" font-family="Lucida Sans Typewriter" font-size="13" lengthAdjust="spacingAndGlyphs" textLength="104" x="16" y="58.0752">dem Stereotyp</text><text fill="#000000" font-family="Lucida Sans Typewriter" font-size="13" lengthAdjust="spacingAndGlyphs" textLength="144" x="16" y="73.3477">&lt;&lt;decision input&gt;&gt;</text><text fill="#000000" font-family="Lucida Sans Typewriter" font-size="13" lengthAdjust="spacingAndGlyphs" textLength="80" x="16" y="88.6201">erläutert.</text><path d="M271,25.2725 L271,81.0898 L436,81.0898 L436,35.2725 L426,25.2725 L271,25.2725 " fill="#FFFFE0" filter="url(#f1j0knr7qmikkb)" style="stroke: #483D8B; stroke-width: 1.0;"/><path d="M426,25.2725 L426,35.2725 L436,35.2725 L426,25.2725 " fill="#FFFFE0" style="stroke: #483D8B; stroke-width: 1.0;"/><text fill="#000000" font-family="Lucida Sans Typewriter" font-size="13" lengthAdjust="spacingAndGlyphs" textLength="144" x="277" y="42.8027">&lt;&lt;decision input&gt;&gt;</text><text fill="#000000" font-family="Lucida Sans Typewriter" font-size="13" lengthAdjust="spacingAndGlyphs" textLength="120" x="277" y="58.0752">Ist hinreichend</text><text fill="#000000" font-family="Lucida Sans Typewriter" font-size="13" lengthAdjust="spacingAndGlyphs" textLength="144" x="277" y="73.3477">Bonität vorhanden?</text><ellipse cx="251" cy="53.1812" fill="#000000" filter="url(#f1j0knr7qmikkb)" rx="10" ry="10" style="stroke: none; stroke-width: 1.0;"/><polygon fill="#F8F8FF" filter="url(#f1j0knr7qmikkb)" points="251,116.3623,251,116.3623,263,128.3623,251,140.3623,251,140.3623,239,128.3623,251,116.3623" style="stroke: #483D8B; stroke-width: 1.5;"/><text fill="#000000" font-family="Lucida Sans Typewriter" font-size="11" lengthAdjust="spacingAndGlyphs" textLength="42" x="197" y="126.042">[true]</text><text fill="#000000" font-family="Lucida Sans Typewriter" font-size="11" lengthAdjust="spacingAndGlyphs" textLength="49" x="263" y="126.042">[false]</text><rect fill="#FFFAFA" filter="url(#f1j0knr7qmikkb)" height="34.0977" rx="12.5" ry="12.5" style="stroke: #483D8B; stroke-width: 1.5;" width="167" x="65.25" y="150.3623"/><text fill="#000000" font-family="Lucida Sans Typewriter" font-size="12" lengthAdjust="spacingAndGlyphs" textLength="147" x="75.25" y="171.9287">Kaufvertrag abwickeln</text><rect fill="#FFFAFA" filter="url(#f1j0knr7qmikkb)" height="34.0977" rx="12.5" ry="12.5" style="stroke: #483D8B; stroke-width: 1.5;" width="202" x="252.25" y="150.3623"/><text fill="#000000" font-family="Lucida Sans Typewriter" font-size="12" lengthAdjust="spacingAndGlyphs" textLength="182" x="262.25" y="171.9287">zunächst Beratung anbieten</text><polygon fill="#F8F8FF" filter="url(#f1j0knr7qmikkb)" points="251,190.46,263,202.46,251,214.46,239,202.46,251,190.46" style="stroke: #483D8B; stroke-width: 1.5;"/><ellipse cx="251" cy="245.46" fill="#FFFFFF" filter="url(#f1j0knr7qmikkb)" rx="11" ry="11" style="stroke: #000000; stroke-width: 1.0;"/><ellipse cx="251" cy="245.46" fill="#000000" rx="6" ry="6" style="stroke: #7F7F7F; stroke-width: 1.0;"/><line style="stroke: #483D8B; stroke-width: 1.5;" x1="239" x2="148.75" y1="128.3623" y2="128.3623"/><line style="stroke: #483D8B; stroke-width: 1.5;" x1="148.75" x2="148.75" y1="128.3623" y2="150.3623"/><polygon fill="#483D8B" points="144.75,140.3623,148.75,150.3623,152.75,140.3623,148.75,144.3623" style="stroke: #483D8B; stroke-width: 1.0;"/><line style="stroke: #483D8B; stroke-width: 1.5;" x1="263" x2="353.25" y1="128.3623" y2="128.3623"/><line style="stroke: #483D8B; stroke-width: 1.5;" x1="353.25" x2="353.25" y1="128.3623" y2="150.3623"/><polygon fill="#483D8B" points="349.25,140.3623,353.25,150.3623,357.25,140.3623,353.25,144.3623" style="stroke: #483D8B; stroke-width: 1.0;"/><line style="stroke: #483D8B; stroke-width: 1.5;" x1="148.75" x2="148.75" y1="184.46" y2="202.46"/><line style="stroke: #483D8B; stroke-width: 1.5;" x1="148.75" x2="239" y1="202.46" y2="202.46"/><polygon fill="#483D8B" points="229,198.46,239,202.46,229,206.46,233,202.46" style="stroke: #483D8B; stroke-width: 1.0;"/><line style="stroke: #483D8B; stroke-width: 1.5;" x1="353.25" x2="353.25" y1="184.46" y2="202.46"/><line style="stroke: #483D8B; stroke-width: 1.5;" x1="353.25" x2="263" y1="202.46" y2="202.46"/><polygon fill="#483D8B" points="273,198.46,263,202.46,273,206.46,269,202.46" style="stroke: #483D8B; stroke-width: 1.0;"/><line style="stroke: #483D8B; stroke-width: 1.5;" x1="251" x2="251" y1="63.1812" y2="116.3623"/><polygon fill="#483D8B" points="247,106.3623,251,116.3623,255,106.3623,251,110.3623" style="stroke: #483D8B; stroke-width: 1.0;"/><line style="stroke: #483D8B; stroke-width: 1.5;" x1="251" x2="251" y1="214.46" y2="234.46"/><polygon fill="#483D8B" points="247,224.46,251,234.46,255,224.46,251,228.46" style="stroke: #483D8B; stroke-width: 1.0;"/><!--
@startuml
skinparam DefaultFontName "Lucida Sans Typewriter"

skinparam Activity{
    BackgroundColor snow
    BorderColor DarkSlateBlue
    DiamondBackgroundColor ghostwhite
    DiamondBorderColor DarkSlateBlue

}
skinparam Note{
    BorderColor DarkSlateBlue
    BackgroundColor LightYellow
}

skinparam ArrowColor DarkSlateBlue

start
note left 
Komplexere Entscheidungen
werden durch Notiz mit 
dem Stereotyp 
<<decision input>>
erläutert.
end note
note right
<<decision input>>
Ist hinreichend 
Bonität vorhanden?
end note
 if() then ([true])
:Kaufvertrag abwickeln;
else ([false])
:zunächst Beratung anbieten;
endif
stop
	
@enduml

PlantUML version 1.2019.09(Mon Aug 26 18:19:51 CEST 2019)
(GPL source distribution)
Java Runtime: Java(TM) SE Runtime Environment
JVM: Java HotSpot(TM) 64-Bit Server VM
Java Version: 11.0.4+10-LTS
Operating System: Windows 10
OS Version: 10.0
Default Encoding: Cp1252
Language: de
Country: DE
--></g></svg>