<?xml version="1.0" encoding="UTF-8" standalone="no"?><svg xmlns="http://www.w3.org/2000/svg" xmlns:xlink="http://www.w3.org/1999/xlink" contentScriptType="application/ecmascript" contentStyleType="text/css" height="214px" preserveAspectRatio="none" style="width:444px;height:214px;" version="1.1" viewBox="0 0 444 214" width="444px" zoomAndPan="magnify"><defs><filter height="300%" id="fr0zhw7jycwry" width="300%" x="-1" y="-1"><feGaussianBlur result="blurOut" stdDeviation="2.0"/><feColorMatrix in="blurOut" result="blurOut2" type="matrix" values="0 0 0 0 0 0 0 0 0 0 0 0 0 0 0 0 0 0 .4 0"/><feOffset dx="4.0" dy="4.0" in="blurOut2" result="blurOut3"/><feBlend in="SourceGraphic" in2="blurOut3" mode="normal"/></filter></defs><g><ellipse cx="221.5" cy="20" fill="#000000" filter="url(#fr0zhw7jycwry)" rx="10" ry="10" style="stroke: none; stroke-width: 1.0;"/><polygon fill="#F8F8FF" filter="url(#fr0zhw7jycwry)" points="86.5,50,86.5,50,98.5,62,86.5,74,86.5,74,74.5,62,86.5,50" style="stroke: #483D8B; stroke-width: 1.5;"/><text fill="#000000" font-family="Lucida Sans Typewriter" font-size="11" lengthAdjust="spacingAndGlyphs" textLength="63" x="90.5" y="84.6025">[Taste A]</text><rect fill="#FFFAFA" filter="url(#fr0zhw7jycwry)" height="34.0977" rx="12.5" ry="12.5" style="stroke: #483D8B; stroke-width: 1.5;" width="153" x="10" y="106.9229"/><text fill="#000000" font-family="Lucida Sans Typewriter" font-size="12" lengthAdjust="spacingAndGlyphs" textLength="133" x="20" y="128.4893">Bewegung nach links</text><polygon fill="#F8F8FF" filter="url(#fr0zhw7jycwry)" points="253,50,253,50,265,62,253,74,253,74,241,62,253,50" style="stroke: #483D8B; stroke-width: 1.5;"/><text fill="#000000" font-family="Lucida Sans Typewriter" font-size="11" lengthAdjust="spacingAndGlyphs" textLength="63" x="257" y="84.6025">[Taste D]</text><text fill="#000000" font-family="Lucida Sans Typewriter" font-size="11" lengthAdjust="spacingAndGlyphs" textLength="42" x="265" y="59.6797">[else]</text><rect fill="#FFFAFA" filter="url(#fr0zhw7jycwry)" height="34.0977" rx="12.5" ry="12.5" style="stroke: #483D8B; stroke-width: 1.5;" width="160" x="173" y="106.9229"/><text fill="#000000" font-family="Lucida Sans Typewriter" font-size="12" lengthAdjust="spacingAndGlyphs" textLength="140" x="183" y="128.4893">Bewegung nach rechts</text><rect fill="#FFFAFA" filter="url(#fr0zhw7jycwry)" height="34.0977" rx="12.5" ry="12.5" style="stroke: #483D8B; stroke-width: 1.5;" width="90" x="343" y="103.4614"/><text fill="#000000" font-family="Lucida Sans Typewriter" font-size="12" lengthAdjust="spacingAndGlyphs" textLength="70" x="353" y="125.0278">ignorieren</text><ellipse cx="221.5" cy="192.0205" fill="#FFFFFF" filter="url(#fr0zhw7jycwry)" rx="11" ry="11" style="stroke: #000000; stroke-width: 1.0;"/><ellipse cx="221.5" cy="192.0205" fill="#000000" rx="6" ry="6" style="stroke: #7F7F7F; stroke-width: 1.0;"/><line style="stroke: #483D8B; stroke-width: 1.5;" x1="86.5" x2="86.5" y1="74" y2="106.9229"/><polygon fill="#483D8B" points="82.5,96.9229,86.5,106.9229,90.5,96.9229,86.5,100.9229" style="stroke: #483D8B; stroke-width: 1.0;"/><line style="stroke: #483D8B; stroke-width: 1.5;" x1="86.5" x2="86.5" y1="141.0205" y2="161.0205"/><polygon fill="#483D8B" points="82.5,151.0205,86.5,161.0205,90.5,151.0205,86.5,155.0205" style="stroke: #483D8B; stroke-width: 1.0;"/><line style="stroke: #483D8B; stroke-width: 1.5;" x1="253" x2="253" y1="74" y2="106.9229"/><polygon fill="#483D8B" points="249,96.9229,253,106.9229,257,96.9229,253,100.9229" style="stroke: #483D8B; stroke-width: 1.0;"/><line style="stroke: #483D8B; stroke-width: 1.5;" x1="253" x2="253" y1="141.0205" y2="161.0205"/><polygon fill="#483D8B" points="249,151.0205,253,161.0205,257,151.0205,253,155.0205" style="stroke: #483D8B; stroke-width: 1.0;"/><line style="stroke: #483D8B; stroke-width: 1.5;" x1="98.5" x2="241" y1="62" y2="62"/><polygon fill="#483D8B" points="231,58,241,62,231,66,235,62" style="stroke: #483D8B; stroke-width: 1.0;"/><line style="stroke: #483D8B; stroke-width: 1.5;" x1="221.5" x2="221.5" y1="30" y2="35"/><line style="stroke: #483D8B; stroke-width: 1.5;" x1="221.5" x2="86.5" y1="35" y2="35"/><line style="stroke: #483D8B; stroke-width: 1.5;" x1="86.5" x2="86.5" y1="35" y2="50"/><polygon fill="#483D8B" points="82.5,40,86.5,50,90.5,40,86.5,44" style="stroke: #483D8B; stroke-width: 1.0;"/><line style="stroke: #483D8B; stroke-width: 1.5;" x1="265" x2="388" y1="62" y2="62"/><line style="stroke: #483D8B; stroke-width: 1.5;" x1="388" x2="388" y1="62" y2="103.4614"/><polygon fill="#483D8B" points="384,93.4614,388,103.4614,392,93.4614,388,97.4614" style="stroke: #483D8B; stroke-width: 1.0;"/><line style="stroke: #483D8B; stroke-width: 1.5;" x1="388" x2="388" y1="137.5591" y2="161.0205"/><polygon fill="#483D8B" points="384,151.0205,388,161.0205,392,151.0205,388,155.0205" style="stroke: #483D8B; stroke-width: 1.0;"/><line style="stroke: #483D8B; stroke-width: 1.5;" x1="86.5" x2="388" y1="161.0205" y2="161.0205"/><line style="stroke: #483D8B; stroke-width: 1.5;" x1="221.5" x2="221.5" y1="161.0205" y2="181.0205"/><polygon fill="#483D8B" points="217.5,171.0205,221.5,181.0205,225.5,171.0205,221.5,175.0205" style="stroke: #483D8B; stroke-width: 1.0;"/><!--
@startuml
skinparam DefaultFontName "Lucida Sans Typewriter"

skinparam Activity{
    BackgroundColor snow
    BorderColor DarkSlateBlue
    DiamondBackgroundColor ghostwhite
    DiamondBorderColor DarkSlateBlue

}
skinparam Note{
    BorderColor DarkSlateBlue
    BackgroundColor LightYellow
}

skinparam ArrowColor DarkSlateBlue

start
if() then ([Taste A])
 :Bewegung nach links;
elseif() then ([Taste D])
 :Bewegung nach rechts;
else ([else])
  :ignorieren;
endif
stop
	
@enduml

PlantUML version 1.2019.09(Mon Aug 26 18:19:51 CEST 2019)
(GPL source distribution)
Java Runtime: Java(TM) SE Runtime Environment
JVM: Java HotSpot(TM) 64-Bit Server VM
Java Version: 11.0.4+10-LTS
Operating System: Windows 10
OS Version: 10.0
Default Encoding: Cp1252
Language: de
Country: DE
--></g></svg>