<?xml version="1.0" encoding="UTF-8" standalone="no"?><svg xmlns="http://www.w3.org/2000/svg" xmlns:xlink="http://www.w3.org/1999/xlink" contentScriptType="application/ecmascript" contentStyleType="text/css" height="246px" preserveAspectRatio="none" style="width:214px;height:246px;" version="1.1" viewBox="0 0 214 246" width="214px" zoomAndPan="magnify"><defs><filter height="300%" id="f1qe7bonehpkq9" width="300%" x="-1" y="-1"><feGaussianBlur result="blurOut" stdDeviation="2.0"/><feColorMatrix in="blurOut" result="blurOut2" type="matrix" values="0 0 0 0 0 0 0 0 0 0 0 0 0 0 0 0 0 0 .4 0"/><feOffset dx="4.0" dy="4.0" in="blurOut2" result="blurOut3"/><feBlend in="SourceGraphic" in2="blurOut3" mode="normal"/></filter></defs><g><ellipse cx="79.5" cy="20" fill="#000000" filter="url(#f1qe7bonehpkq9)" rx="10" ry="10" style="stroke: none; stroke-width: 1.0;"/><rect fill="#FFFAFA" filter="url(#f1qe7bonehpkq9)" height="34.0977" rx="12.5" ry="12.5" style="stroke: #483D8B; stroke-width: 1.5;" width="139" x="10" y="94"/><text fill="#000000" font-family="Lucida Sans Typewriter" font-size="12" lengthAdjust="spacingAndGlyphs" textLength="119" x="20" y="115.5664">Stufe hochsteigen</text><polygon fill="#F8F8FF" filter="url(#f1qe7bonehpkq9)" points="79.5,50,91.5,62,79.5,74,67.5,62,79.5,50" style="stroke: #483D8B; stroke-width: 1.5;"/><polygon fill="#F8F8FF" filter="url(#f1qe7bonehpkq9)" points="79.5,148.0977,79.5,148.0977,91.5,160.0977,79.5,172.0977,79.5,172.0977,67.5,160.0977,79.5,148.0977" style="stroke: #483D8B; stroke-width: 1.5;"/><text fill="#000000" font-family="Lucida Sans Typewriter" font-size="11" lengthAdjust="spacingAndGlyphs" textLength="42" x="91.5" y="157.7773">[else]</text><ellipse cx="79.5" cy="224.3408" fill="#FFFFFF" filter="url(#f1qe7bonehpkq9)" rx="11" ry="11" style="stroke: #000000; stroke-width: 1.0;"/><ellipse cx="79.5" cy="224.3408" fill="#000000" rx="6" ry="6" style="stroke: #7F7F7F; stroke-width: 1.0;"/><line style="stroke: #483D8B; stroke-width: 1.5;" x1="79.5" x2="79.5" y1="74" y2="94"/><polygon fill="#483D8B" points="75.5,84,79.5,94,83.5,84,79.5,88" style="stroke: #483D8B; stroke-width: 1.0;"/><line style="stroke: #483D8B; stroke-width: 1.5;" x1="91.5" x2="161" y1="160.0977" y2="160.0977"/><polygon fill="#483D8B" points="157,121.0488,161,111.0488,165,121.0488,161,117.0488" style="stroke: #483D8B; stroke-width: 1.5;"/><line style="stroke: #483D8B; stroke-width: 1.5;" x1="161" x2="161" y1="62" y2="160.0977"/><line style="stroke: #483D8B; stroke-width: 1.5;" x1="161" x2="91.5" y1="62" y2="62"/><polygon fill="#483D8B" points="101.5,58,91.5,62,101.5,66,97.5,62" style="stroke: #483D8B; stroke-width: 1.0;"/><line style="stroke: #483D8B; stroke-width: 1.5;" x1="79.5" x2="79.5" y1="128.0977" y2="148.0977"/><polygon fill="#483D8B" points="75.5,138.0977,79.5,148.0977,83.5,138.0977,79.5,142.0977" style="stroke: #483D8B; stroke-width: 1.0;"/><line style="stroke: #483D8B; stroke-width: 1.5;" x1="79.5" x2="79.5" y1="30" y2="50"/><polygon fill="#483D8B" points="75.5,40,79.5,50,83.5,40,79.5,44" style="stroke: #483D8B; stroke-width: 1.0;"/><line style="stroke: #483D8B; stroke-width: 1.5;" x1="79.5" x2="79.5" y1="172.0977" y2="213.3408"/><polygon fill="#483D8B" points="75.5,203.3408,79.5,213.3408,83.5,203.3408,79.5,207.3408" style="stroke: #483D8B; stroke-width: 1.0;"/><text fill="#000000" font-family="Lucida Sans Typewriter" font-size="11" lengthAdjust="spacingAndGlyphs" textLength="119" x="83.5" y="193.5205">[oben angekommen]</text><!--
@startuml
skinparam DefaultFontName "Lucida Sans Typewriter"

skinparam Activity{
    BackgroundColor snow
    BorderColor DarkSlateBlue
    DiamondBackgroundColor ghostwhite
    DiamondBorderColor DarkSlateBlue

}
skinparam Note{
    BorderColor DarkSlateBlue
    BackgroundColor LightYellow
}

skinparam ArrowColor DarkSlateBlue
start
repeat
	:Stufe hochsteigen;
repeat while () is ([else])
->[oben angekommen];
stop

	
@enduml

PlantUML version 1.2019.09(Mon Aug 26 18:19:51 CEST 2019)
(GPL source distribution)
Java Runtime: Java(TM) SE Runtime Environment
JVM: Java HotSpot(TM) 64-Bit Server VM
Java Version: 11.0.4+10-LTS
Operating System: Windows 10
OS Version: 10.0
Default Encoding: Cp1252
Language: de
Country: DE
--></g></svg>