<?xml version="1.0" encoding="UTF-8" standalone="no"?><svg xmlns="http://www.w3.org/2000/svg" xmlns:xlink="http://www.w3.org/1999/xlink" contentScriptType="application/ecmascript" contentStyleType="text/css" height="242px" preserveAspectRatio="none" style="width:201px;height:242px;" version="1.1" viewBox="0 0 201 242" width="201px" zoomAndPan="magnify"><defs><filter height="300%" id="f1d38fnrnqyf2p" width="300%" x="-1" y="-1"><feGaussianBlur result="blurOut" stdDeviation="2.0"/><feColorMatrix in="blurOut" result="blurOut2" type="matrix" values="0 0 0 0 0 0 0 0 0 0 0 0 0 0 0 0 0 0 .4 0"/><feOffset dx="4.0" dy="4.0" in="blurOut2" result="blurOut3"/><feBlend in="SourceGraphic" in2="blurOut3" mode="normal"/></filter></defs><g><ellipse cx="104" cy="20" fill="#000000" filter="url(#f1d38fnrnqyf2p)" rx="10" ry="10" style="stroke: none; stroke-width: 1.0;"/><rect fill="#FFFAFA" filter="url(#f1d38fnrnqyf2p)" height="34.0977" rx="12.5" ry="12.5" style="stroke: #483D8B; stroke-width: 1.5;" width="118" x="45" y="110.9229"/><text fill="#000000" font-family="Lucida Sans Typewriter" font-size="12" lengthAdjust="spacingAndGlyphs" textLength="98" x="55" y="132.4893">Brot schmieren</text><rect fill="#FFFAFA" filter="url(#f1d38fnrnqyf2p)" height="34.0977" rx="12.5" ry="12.5" style="stroke: #483D8B; stroke-width: 1.5;" width="90" x="59" y="174.0591"/><text fill="#000000" font-family="Lucida Sans Typewriter" font-size="12" lengthAdjust="spacingAndGlyphs" textLength="70" x="69" y="195.6255">Brot essen</text><polygon fill="#F8F8FF" filter="url(#f1d38fnrnqyf2p)" points="104,50,104,50,116,62,104,74,104,74,92,62,104,50" style="stroke: #483D8B; stroke-width: 1.5;"/><text fill="#000000" font-family="Lucida Sans Typewriter" font-size="11" lengthAdjust="spacingAndGlyphs" textLength="63" x="108" y="84.6025">[hungrig]</text><text fill="#000000" font-family="Lucida Sans Typewriter" font-size="11" lengthAdjust="spacingAndGlyphs" textLength="42" x="50" y="59.6797">[satt]</text><ellipse cx="24" cy="109" fill="#FFFFFF" filter="url(#f1d38fnrnqyf2p)" rx="11" ry="11" style="stroke: #000000; stroke-width: 1.0;"/><ellipse cx="24" cy="109" fill="#000000" rx="6" ry="6" style="stroke: #7F7F7F; stroke-width: 1.0;"/><line style="stroke: #483D8B; stroke-width: 1.5;" x1="104" x2="104" y1="145.0205" y2="174.0591"/><polygon fill="#483D8B" points="100,164.0591,104,174.0591,108,164.0591,104,168.0591" style="stroke: #483D8B; stroke-width: 1.0;"/><line style="stroke: #483D8B; stroke-width: 1.5;" x1="104" x2="104" y1="74" y2="110.9229"/><polygon fill="#483D8B" points="100,100.9229,104,110.9229,108,100.9229,104,104.9229" style="stroke: #483D8B; stroke-width: 1.0;"/><line style="stroke: #483D8B; stroke-width: 1.5;" x1="104" x2="104" y1="208.1567" y2="218.1567"/><line style="stroke: #483D8B; stroke-width: 1.5;" x1="104" x2="175" y1="218.1567" y2="218.1567"/><polygon fill="#483D8B" points="171,154.0591,175,144.0591,179,154.0591,175,150.0591" style="stroke: #483D8B; stroke-width: 1.5;"/><line style="stroke: #483D8B; stroke-width: 1.5;" x1="175" x2="175" y1="62" y2="218.1567"/><line style="stroke: #483D8B; stroke-width: 1.5;" x1="175" x2="116" y1="62" y2="62"/><polygon fill="#483D8B" points="126,58,116,62,126,66,122,62" style="stroke: #483D8B; stroke-width: 1.0;"/><line style="stroke: #483D8B; stroke-width: 1.5;" x1="92" x2="24" y1="62" y2="62"/><line style="stroke: #483D8B; stroke-width: 1.5;" x1="24" x2="24" y1="62" y2="98"/><polygon fill="#483D8B" points="20,88,24,98,28,88,24,92" style="stroke: #483D8B; stroke-width: 1.0;"/><line style="stroke: #483D8B; stroke-width: 1.5;" x1="104" x2="104" y1="30" y2="50"/><polygon fill="#483D8B" points="100,40,104,50,108,40,104,44" style="stroke: #483D8B; stroke-width: 1.0;"/><!--
@startuml
skinparam DefaultFontName "Lucida Sans Typewriter"

skinparam Activity{
    BackgroundColor snow
    BorderColor DarkSlateBlue
    DiamondBackgroundColor ghostwhite
    DiamondBorderColor DarkSlateBlue

}
skinparam Note{
    BorderColor DarkSlateBlue
    BackgroundColor LightYellow
}

skinparam ArrowColor DarkSlateBlue
start
while() is ([hungrig])
	:Brot schmieren;
	:Brot essen;
endwhile ([satt])
stop

	
@enduml

PlantUML version 1.2019.09(Mon Aug 26 18:19:51 CEST 2019)
(GPL source distribution)
Java Runtime: Java(TM) SE Runtime Environment
JVM: Java HotSpot(TM) 64-Bit Server VM
Java Version: 11.0.4+10-LTS
Operating System: Windows 10
OS Version: 10.0
Default Encoding: Cp1252
Language: de
Country: DE
--></g></svg>