<?xml version="1.0" encoding="UTF-8" standalone="no"?><svg xmlns="http://www.w3.org/2000/svg" xmlns:xlink="http://www.w3.org/1999/xlink" contentScriptType="application/ecmascript" contentStyleType="text/css" height="203px" preserveAspectRatio="none" style="width:281px;height:203px;" version="1.1" viewBox="0 0 281 203" width="281px" zoomAndPan="magnify"><defs><filter height="300%" id="fapygeo3udh2y" width="300%" x="-1" y="-1"><feGaussianBlur result="blurOut" stdDeviation="2.0"/><feColorMatrix in="blurOut" result="blurOut2" type="matrix" values="0 0 0 0 0 0 0 0 0 0 0 0 0 0 0 0 0 0 .4 0"/><feOffset dx="4.0" dy="4.0" in="blurOut2" result="blurOut3"/><feBlend in="SourceGraphic" in2="blurOut3" mode="normal"/></filter></defs><g><ellipse cx="133" cy="20" fill="#000000" filter="url(#fapygeo3udh2y)" rx="10" ry="10" style="stroke: none; stroke-width: 1.0;"/><rect fill="#000000" filter="url(#fapygeo3udh2y)" height="6" rx="2.5" ry="2.5" style="stroke: #000000; stroke-width: 1.0;" width="260" x="10" y="50"/><rect fill="#FFFAFA" filter="url(#fapygeo3udh2y)" height="34.0977" rx="12.5" ry="12.5" style="stroke: #483D8B; stroke-width: 1.5;" width="90" x="22" y="83.0488"/><text fill="#000000" font-family="Lucida Sans Typewriter" font-size="12" lengthAdjust="spacingAndGlyphs" textLength="70" x="32" y="104.6152">Mache dies</text><rect fill="#FFFAFA" filter="url(#fapygeo3udh2y)" height="48.1953" rx="12.5" ry="12.5" style="stroke: #483D8B; stroke-width: 1.5;" width="132" x="126" y="76"/><text fill="#000000" font-family="Lucida Sans Typewriter" font-size="12" lengthAdjust="spacingAndGlyphs" textLength="84" x="136" y="97.5664">...und mache</text><text fill="#000000" font-family="Lucida Sans Typewriter" font-size="12" lengthAdjust="spacingAndGlyphs" textLength="112" x="136" y="111.6641">gleichzeitig das</text><rect fill="#000000" filter="url(#fapygeo3udh2y)" height="6" rx="2.5" ry="2.5" style="stroke: #000000; stroke-width: 1.0;" width="260" x="10" y="144.1953"/><ellipse cx="133" cy="181.1953" fill="#FFFFFF" filter="url(#fapygeo3udh2y)" rx="11" ry="11" style="stroke: #000000; stroke-width: 1.0;"/><ellipse cx="133" cy="181.1953" fill="#000000" rx="6" ry="6" style="stroke: #7F7F7F; stroke-width: 1.0;"/><line style="stroke: #483D8B; stroke-width: 1.5;" x1="67" x2="67" y1="56" y2="83.0488"/><polygon fill="#483D8B" points="63,73.0488,67,83.0488,71,73.0488,67,77.0488" style="stroke: #483D8B; stroke-width: 1.0;"/><line style="stroke: #483D8B; stroke-width: 1.5;" x1="192" x2="192" y1="56" y2="76"/><polygon fill="#483D8B" points="188,66,192,76,196,66,192,70" style="stroke: #483D8B; stroke-width: 1.0;"/><line style="stroke: #483D8B; stroke-width: 1.5;" x1="67" x2="67" y1="117.1465" y2="144.1953"/><polygon fill="#483D8B" points="63,134.1953,67,144.1953,71,134.1953,67,138.1953" style="stroke: #483D8B; stroke-width: 1.0;"/><line style="stroke: #483D8B; stroke-width: 1.5;" x1="192" x2="192" y1="124.1953" y2="144.1953"/><polygon fill="#483D8B" points="188,134.1953,192,144.1953,196,134.1953,192,138.1953" style="stroke: #483D8B; stroke-width: 1.0;"/><line style="stroke: #483D8B; stroke-width: 1.5;" x1="133" x2="133" y1="30" y2="50"/><polygon fill="#483D8B" points="129,40,133,50,137,40,133,44" style="stroke: #483D8B; stroke-width: 1.0;"/><line style="stroke: #483D8B; stroke-width: 1.5;" x1="133" x2="133" y1="150.1953" y2="170.1953"/><polygon fill="#483D8B" points="129,160.1953,133,170.1953,137,160.1953,133,164.1953" style="stroke: #483D8B; stroke-width: 1.0;"/><!--
@startuml
skinparam DefaultFontName "Lucida Sans Typewriter"

skinparam Activity{
    BackgroundColor snow
    BorderColor DarkSlateBlue
    DiamondBackgroundColor ghostwhite
    DiamondBorderColor DarkSlateBlue

}
skinparam Note{
    BorderColor DarkSlateBlue
    BackgroundColor LightYellow
}

skinparam ArrowColor DarkSlateBlue
start
  fork
    :Mache dies;
  fork again
    :...und mache 
    gleichzeitig das;
  end fork
stop

	
@enduml

PlantUML version 1.2019.09(Mon Aug 26 18:19:51 CEST 2019)
(GPL source distribution)
Java Runtime: Java(TM) SE Runtime Environment
JVM: Java HotSpot(TM) 64-Bit Server VM
Java Version: 11.0.4+10-LTS
Operating System: Windows 10
OS Version: 10.0
Default Encoding: Cp1252
Language: de
Country: DE
--></g></svg>