<?xml version="1.0" encoding="UTF-8" standalone="no"?><svg xmlns="http://www.w3.org/2000/svg" xmlns:xlink="http://www.w3.org/1999/xlink" contentScriptType="application/ecmascript" contentStyleType="text/css" height="411px" preserveAspectRatio="none" style="width:508px;height:411px;" version="1.1" viewBox="0 0 508 411" width="508px" zoomAndPan="magnify"><defs><filter height="300%" id="f2xezhzlhu7vl" width="300%" x="-1" y="-1"><feGaussianBlur result="blurOut" stdDeviation="2.0"/><feColorMatrix in="blurOut" result="blurOut2" type="matrix" values="0 0 0 0 0 0 0 0 0 0 0 0 0 0 0 0 0 0 .4 0"/><feOffset dx="4.0" dy="4.0" in="blurOut2" result="blurOut3"/><feBlend in="SourceGraphic" in2="blurOut3" mode="normal"/></filter></defs><g><rect fill="#FFFAFA" filter="url(#f2xezhzlhu7vl)" height="62.293" rx="12.5" ry="12.5" style="stroke: #483D8B; stroke-width: 1.5;" width="118" x="44" y="186.6387"/><text fill="#000000" font-family="Lucida Sans Typewriter" font-size="12" lengthAdjust="spacingAndGlyphs" textLength="77" x="54" y="208.2051">Angebot auf</text><text fill="#000000" font-family="Lucida Sans Typewriter" font-size="12" lengthAdjust="spacingAndGlyphs" textLength="91" x="54" y="222.3027">Pflichtenheft</text><text fill="#000000" font-family="Lucida Sans Typewriter" font-size="12" lengthAdjust="spacingAndGlyphs" textLength="63" x="54" y="236.4004">basierend</text><rect fill="#FFFAFA" filter="url(#f2xezhzlhu7vl)" height="34.0977" rx="12.5" ry="12.5" style="stroke: #483D8B; stroke-width: 1.5;" width="111" x="211.5" y="132.541"/><text fill="#000000" font-family="Lucida Sans Typewriter" font-size="12" lengthAdjust="spacingAndGlyphs" textLength="91" x="221.5" y="154.1074">Pflichtenheft</text><ellipse cx="417.5" cy="48.4434" fill="#000000" filter="url(#f2xezhzlhu7vl)" rx="10" ry="10" style="stroke: none; stroke-width: 1.0;"/><rect fill="#FFFAFA" filter="url(#f2xezhzlhu7vl)" height="34.0977" rx="12.5" ry="12.5" style="stroke: #483D8B; stroke-width: 1.5;" width="90" x="372.5" y="78.4434"/><text fill="#000000" font-family="Lucida Sans Typewriter" font-size="12" lengthAdjust="spacingAndGlyphs" textLength="70" x="382.5" y="100.0098">Lastenheft</text><rect fill="#FFFAFA" filter="url(#f2xezhzlhu7vl)" height="34.0977" rx="12.5" ry="12.5" style="stroke: #483D8B; stroke-width: 1.5;" width="125" x="355" y="268.9316"/><text fill="#000000" font-family="Lucida Sans Typewriter" font-size="12" lengthAdjust="spacingAndGlyphs" textLength="105" x="365" y="290.498">Angebotsprüfung</text><rect fill="#FFFAFA" filter="url(#f2xezhzlhu7vl)" height="34.0977" rx="12.5" ry="12.5" style="stroke: #483D8B; stroke-width: 1.5;" width="139" x="348" y="323.0293"/><text fill="#000000" font-family="Lucida Sans Typewriter" font-size="12" lengthAdjust="spacingAndGlyphs" textLength="119" x="358" y="344.5957">Vertragsabschluss</text><ellipse cx="417.5" cy="388.127" fill="#FFFFFF" filter="url(#f2xezhzlhu7vl)" rx="11" ry="11" style="stroke: #000000; stroke-width: 1.0;"/><ellipse cx="417.5" cy="388.127" fill="#000000" rx="6" ry="6" style="stroke: #7F7F7F; stroke-width: 1.0;"/><line style="stroke: #483D8B; stroke-width: 1.5;" x1="417.5" x2="417.5" y1="58.4434" y2="78.4434"/><polygon fill="#483D8B" points="413.5,68.4434,417.5,78.4434,421.5,68.4434,417.5,72.4434" style="stroke: #483D8B; stroke-width: 1.0;"/><line style="stroke: #483D8B; stroke-width: 1.5;" x1="417.5" x2="417.5" y1="303.0293" y2="323.0293"/><polygon fill="#483D8B" points="413.5,313.0293,417.5,323.0293,421.5,313.0293,417.5,317.0293" style="stroke: #483D8B; stroke-width: 1.0;"/><line style="stroke: #483D8B; stroke-width: 1.5;" x1="417.5" x2="417.5" y1="357.127" y2="377.127"/><polygon fill="#483D8B" points="413.5,367.127,417.5,377.127,421.5,367.127,417.5,371.127" style="stroke: #483D8B; stroke-width: 1.0;"/><line style="stroke: #483D8B; stroke-width: 1.5;" x1="417.5" x2="417.5" y1="112.541" y2="117.541"/><line style="stroke: #483D8B; stroke-width: 1.5;" x1="417.5" x2="267" y1="117.541" y2="117.541"/><line style="stroke: #483D8B; stroke-width: 1.5;" x1="267" x2="267" y1="117.541" y2="132.541"/><polygon fill="#483D8B" points="263,122.541,267,132.541,271,122.541,267,126.541" style="stroke: #483D8B; stroke-width: 1.0;"/><line style="stroke: #483D8B; stroke-width: 1.5;" x1="267" x2="267" y1="166.6387" y2="171.6387"/><line style="stroke: #483D8B; stroke-width: 1.5;" x1="267" x2="103" y1="171.6387" y2="171.6387"/><line style="stroke: #483D8B; stroke-width: 1.5;" x1="103" x2="103" y1="171.6387" y2="186.6387"/><polygon fill="#483D8B" points="99,176.6387,103,186.6387,107,176.6387,103,180.6387" style="stroke: #483D8B; stroke-width: 1.0;"/><line style="stroke: #483D8B; stroke-width: 1.5;" x1="103" x2="103" y1="248.9316" y2="253.9316"/><line style="stroke: #483D8B; stroke-width: 1.5;" x1="103" x2="417.5" y1="253.9316" y2="253.9316"/><line style="stroke: #483D8B; stroke-width: 1.5;" x1="417.5" x2="417.5" y1="253.9316" y2="268.9316"/><polygon fill="#483D8B" points="413.5,258.9316,417.5,268.9316,421.5,258.9316,417.5,262.9316" style="stroke: #483D8B; stroke-width: 1.0;"/><text fill="#000000" font-family="Lucida Sans Typewriter" font-size="18" lengthAdjust="spacingAndGlyphs" textLength="165" x="20" y="29.6465">Geschäftsführer</text><text fill="#000000" font-family="Lucida Sans Typewriter" font-size="18" lengthAdjust="spacingAndGlyphs" textLength="143" x="195" y="29.6465">Fachabteilung</text><text fill="#000000" font-family="Lucida Sans Typewriter" font-size="18" lengthAdjust="spacingAndGlyphs" textLength="55" x="389.5" y="29.6465">Kunde</text><line style="stroke: #000000; stroke-width: 2.0;" x1="10" x2="10" y1="12.2969" y2="399.127"/><line style="stroke: #000000; stroke-width: 2.0;" x1="190" x2="190" y1="12.2969" y2="399.127"/><line style="stroke: #000000; stroke-width: 2.0;" x1="343" x2="343" y1="12.2969" y2="399.127"/><line style="stroke: #000000; stroke-width: 2.0;" x1="496" x2="496" y1="12.2969" y2="399.127"/><!--
@startuml
skinparam DefaultFontName "Lucida Sans Typewriter"

skinparam Activity{
    BackgroundColor snow
    BorderColor DarkSlateBlue
    DiamondBackgroundColor ghostwhite
    DiamondBorderColor DarkSlateBlue

}
skinparam Note{
    BorderColor DarkSlateBlue
    BackgroundColor LightYellow
}

skinparam ArrowColor DarkSlateBlue


|Geschäftsführer|
|Fachabteilung|
|Kunde|
	start
|Kunde|
	:Lastenheft;
|Fachabteilung|
	:Pflichtenheft;
|Geschäftsführer|
	:Angebot auf 
	Pflichtenheft 
	basierend;
|Kunde|
	:Angebotsprüfung;
	:Vertragsabschluss;
stop

	
@enduml

PlantUML version 1.2019.09(Mon Aug 26 18:19:51 CEST 2019)
(GPL source distribution)
Java Runtime: Java(TM) SE Runtime Environment
JVM: Java HotSpot(TM) 64-Bit Server VM
Java Version: 11.0.4+10-LTS
Operating System: Windows 10
OS Version: 10.0
Default Encoding: Cp1252
Language: de
Country: DE
--></g></svg>