<?xml version="1.0" encoding="UTF-8" standalone="no"?><svg xmlns="http://www.w3.org/2000/svg" xmlns:xlink="http://www.w3.org/1999/xlink" contentScriptType="application/ecmascript" contentStyleType="text/css" height="327px" preserveAspectRatio="none" style="width:216px;height:327px;" version="1.1" viewBox="0 0 216 327" width="216px" zoomAndPan="magnify"><defs><filter height="300%" id="f1s2kqo5yzth6" width="300%" x="-1" y="-1"><feGaussianBlur result="blurOut" stdDeviation="2.0"/><feColorMatrix in="blurOut" result="blurOut2" type="matrix" values="0 0 0 0 0 0 0 0 0 0 0 0 0 0 0 0 0 0 .4 0"/><feOffset dx="4.0" dy="4.0" in="blurOut2" result="blurOut3"/><feBlend in="SourceGraphic" in2="blurOut3" mode="normal"/></filter></defs><g><polygon fill="#FFFAFA" filter="url(#f1s2kqo5yzth6)" points="38,10,187,10,177,27.0488,187,44.0977,38,44.0977" style="stroke: #483D8B; stroke-width: 1.5;"/><text fill="#000000" font-family="Lucida Sans Typewriter" font-size="12" lengthAdjust="spacingAndGlyphs" textLength="119" x="48" y="31.5664">HTTP-POST-Request</text><rect fill="#FFFAFA" filter="url(#f1s2kqo5yzth6)" height="34.0977" style="stroke: #483D8B; stroke-width: 1.5;" width="167" x="24" y="64.0977"/><text fill="#000000" font-family="Lucida Sans Typewriter" font-size="12" lengthAdjust="spacingAndGlyphs" textLength="147" x="34" y="85.6641">Message Header + Body</text><rect fill="#FFFAFA" filter="url(#f1s2kqo5yzth6)" height="48.1953" rx="12.5" ry="12.5" style="stroke: #483D8B; stroke-width: 1.5;" width="195" x="10" y="118.1953"/><text fill="#000000" font-family="Lucida Sans Typewriter" font-size="12" lengthAdjust="spacingAndGlyphs" textLength="175" x="20" y="139.7617">Nachricht verarbeiten und</text><text fill="#000000" font-family="Lucida Sans Typewriter" font-size="12" lengthAdjust="spacingAndGlyphs" textLength="175" x="20" y="153.8594">Antwortnachricht erzeugen</text><rect fill="#FFFAFA" filter="url(#f1s2kqo5yzth6)" height="34.0977" style="stroke: #483D8B; stroke-width: 1.5;" width="76" x="69.5" y="186.3906"/><text fill="#000000" font-family="Lucida Sans Typewriter" font-size="12" lengthAdjust="spacingAndGlyphs" textLength="56" x="79.5" y="207.957">Response</text><polygon fill="#FFFAFA" filter="url(#f1s2kqo5yzth6)" points="48.5,240.4883,166.5,240.4883,176.5,257.5371,166.5,274.5859,48.5,274.5859" style="stroke: #483D8B; stroke-width: 1.5;"/><text fill="#000000" font-family="Lucida Sans Typewriter" font-size="12" lengthAdjust="spacingAndGlyphs" textLength="98" x="58.5" y="262.0547">sende Response</text><ellipse cx="107.5" cy="305.5859" fill="#FFFFFF" filter="url(#f1s2kqo5yzth6)" rx="11" ry="11" style="stroke: #000000; stroke-width: 1.0;"/><ellipse cx="107.5" cy="305.5859" fill="#000000" rx="6" ry="6" style="stroke: #7F7F7F; stroke-width: 1.0;"/><line style="stroke: #483D8B; stroke-width: 1.5;" x1="107.5" x2="107.5" y1="44.0977" y2="64.0977"/><polygon fill="#483D8B" points="103.5,54.0977,107.5,64.0977,111.5,54.0977,107.5,58.0977" style="stroke: #483D8B; stroke-width: 1.0;"/><line style="stroke: #483D8B; stroke-width: 1.5;" x1="107.5" x2="107.5" y1="98.1953" y2="118.1953"/><polygon fill="#483D8B" points="103.5,108.1953,107.5,118.1953,111.5,108.1953,107.5,112.1953" style="stroke: #483D8B; stroke-width: 1.0;"/><line style="stroke: #483D8B; stroke-width: 1.5;" x1="107.5" x2="107.5" y1="166.3906" y2="186.3906"/><polygon fill="#483D8B" points="103.5,176.3906,107.5,186.3906,111.5,176.3906,107.5,180.3906" style="stroke: #483D8B; stroke-width: 1.0;"/><line style="stroke: #483D8B; stroke-width: 1.5;" x1="107.5" x2="107.5" y1="220.4883" y2="240.4883"/><polygon fill="#483D8B" points="103.5,230.4883,107.5,240.4883,111.5,230.4883,107.5,234.4883" style="stroke: #483D8B; stroke-width: 1.0;"/><line style="stroke: #483D8B; stroke-width: 1.5;" x1="107.5" x2="107.5" y1="274.5859" y2="294.5859"/><polygon fill="#483D8B" points="103.5,284.5859,107.5,294.5859,111.5,284.5859,107.5,288.5859" style="stroke: #483D8B; stroke-width: 1.0;"/><!--
@startuml
skinparam DefaultFontName "Lucida Sans Typewriter"

skinparam Activity{
    BackgroundColor snow
    BorderColor DarkSlateBlue
    DiamondBackgroundColor ghostwhite
    DiamondBorderColor DarkSlateBlue

}
skinparam Note{
    BorderColor DarkSlateBlue
    BackgroundColor LightYellow
}

skinparam ArrowColor DarkSlateBlue



 :HTTP-POST-Request<
 :Message Header + Body]
 :Nachricht verarbeiten und 
 Antwortnachricht erzeugen;
 :Response]
 :sende Response>
stop
	
@enduml

PlantUML version 1.2019.09(Mon Aug 26 18:19:51 CEST 2019)
(GPL source distribution)
Java Runtime: Java(TM) SE Runtime Environment
JVM: Java HotSpot(TM) 64-Bit Server VM
Java Version: 11.0.4+10-LTS
Operating System: Windows 10
OS Version: 10.0
Default Encoding: Cp1252
Language: de
Country: DE
--></g></svg>