<?xml version="1.0" encoding="UTF-8" standalone="no"?><svg xmlns="http://www.w3.org/2000/svg" xmlns:xlink="http://www.w3.org/1999/xlink" contentScriptType="application/ecmascript" contentStyleType="text/css" height="244px" preserveAspectRatio="none" style="width:244px;height:244px;" version="1.1" viewBox="0 0 244 244" width="244px" zoomAndPan="magnify"><defs><filter height="300%" id="fn4c2gxq4qos" width="300%" x="-1" y="-1"><feGaussianBlur result="blurOut" stdDeviation="2.0"/><feColorMatrix in="blurOut" result="blurOut2" type="matrix" values="0 0 0 0 0 0 0 0 0 0 0 0 0 0 0 0 0 0 .4 0"/><feOffset dx="4.0" dy="4.0" in="blurOut2" result="blurOut3"/><feBlend in="SourceGraphic" in2="blurOut3" mode="normal"/></filter></defs><g><ellipse cx="121.5" cy="20" fill="#000000" filter="url(#fn4c2gxq4qos)" rx="10" ry="10" style="stroke: none; stroke-width: 1.0;"/><rect fill="#000000" filter="url(#fn4c2gxq4qos)" height="6" rx="2.5" ry="2.5" style="stroke: #000000; stroke-width: 1.0;" width="223" x="10" y="50"/><rect fill="#FFFAFA" filter="url(#fn4c2gxq4qos)" height="34.0977" rx="12.5" ry="12.5" style="stroke: #483D8B; stroke-width: 1.5;" width="55" x="22" y="103.5"/><text fill="#000000" font-family="Lucida Sans Typewriter" font-size="12" lengthAdjust="spacingAndGlyphs" textLength="35" x="32" y="125.0664">atmen</text><rect fill="#FFFAFA" filter="url(#fn4c2gxq4qos)" height="34.0977" rx="12.5" ry="12.5" style="stroke: #483D8B; stroke-width: 1.5;" width="62" x="87" y="103.5"/><text fill="#000000" font-family="Lucida Sans Typewriter" font-size="12" lengthAdjust="spacingAndGlyphs" textLength="42" x="97" y="125.0664">denken</text><rect fill="#FFFAFA" filter="url(#fn4c2gxq4qos)" height="34.0977" rx="12.5" ry="12.5" style="stroke: #483D8B; stroke-width: 1.5;" width="62" x="159" y="76"/><text fill="#000000" font-family="Lucida Sans Typewriter" font-size="12" lengthAdjust="spacingAndGlyphs" textLength="42" x="169" y="97.5664">singen</text><ellipse cx="190" cy="155.0977" fill="#FFFFFF" filter="url(#fn4c2gxq4qos)" rx="10" ry="10" style="stroke: #000000; stroke-width: 1.5;"/><line style="stroke: #000000; stroke-width: 2.5;" x1="183.8128" x2="196.1872" y1="148.9105" y2="161.2848"/><line style="stroke: #000000; stroke-width: 2.5;" x1="196.1872" x2="183.8128" y1="148.9105" y2="161.2848"/><rect fill="#000000" filter="url(#fn4c2gxq4qos)" height="6" rx="2.5" ry="2.5" style="stroke: #000000; stroke-width: 1.0;" width="223" x="10" y="185.0977"/><ellipse cx="121.5" cy="222.0977" fill="#FFFFFF" filter="url(#fn4c2gxq4qos)" rx="11" ry="11" style="stroke: #000000; stroke-width: 1.0;"/><ellipse cx="121.5" cy="222.0977" fill="#000000" rx="6" ry="6" style="stroke: #7F7F7F; stroke-width: 1.0;"/><line style="stroke: #483D8B; stroke-width: 1.5;" x1="190" x2="190" y1="110.0977" y2="145.0977"/><polygon fill="#483D8B" points="186,135.0977,190,145.0977,194,135.0977,190,139.0977" style="stroke: #483D8B; stroke-width: 1.0;"/><line style="stroke: #483D8B; stroke-width: 1.5;" x1="49.5" x2="49.5" y1="56" y2="103.5"/><polygon fill="#483D8B" points="45.5,93.5,49.5,103.5,53.5,93.5,49.5,97.5" style="stroke: #483D8B; stroke-width: 1.0;"/><line style="stroke: #483D8B; stroke-width: 1.5;" x1="118" x2="118" y1="56" y2="103.5"/><polygon fill="#483D8B" points="114,93.5,118,103.5,122,93.5,118,97.5" style="stroke: #483D8B; stroke-width: 1.0;"/><line style="stroke: #483D8B; stroke-width: 1.5;" x1="190" x2="190" y1="56" y2="76"/><polygon fill="#483D8B" points="186,66,190,76,194,66,190,70" style="stroke: #483D8B; stroke-width: 1.0;"/><line style="stroke: #483D8B; stroke-width: 1.5;" x1="49.5" x2="49.5" y1="137.5977" y2="185.0977"/><polygon fill="#483D8B" points="45.5,175.0977,49.5,185.0977,53.5,175.0977,49.5,179.0977" style="stroke: #483D8B; stroke-width: 1.0;"/><line style="stroke: #483D8B; stroke-width: 1.5;" x1="118" x2="118" y1="137.5977" y2="185.0977"/><polygon fill="#483D8B" points="114,175.0977,118,185.0977,122,175.0977,118,179.0977" style="stroke: #483D8B; stroke-width: 1.0;"/><line style="stroke: #483D8B; stroke-width: 1.5;" x1="121.5" x2="121.5" y1="30" y2="50"/><polygon fill="#483D8B" points="117.5,40,121.5,50,125.5,40,121.5,44" style="stroke: #483D8B; stroke-width: 1.0;"/><line style="stroke: #483D8B; stroke-width: 1.5;" x1="121.5" x2="121.5" y1="191.0977" y2="211.0977"/><polygon fill="#483D8B" points="117.5,201.0977,121.5,211.0977,125.5,201.0977,121.5,205.0977" style="stroke: #483D8B; stroke-width: 1.0;"/><!--
@startuml
skinparam DefaultFontName "Lucida Sans Typewriter"

skinparam Activity{
    BackgroundColor snow
    BorderColor DarkSlateBlue
    DiamondBackgroundColor ghostwhite
    DiamondBorderColor DarkSlateBlue

}
skinparam Note{
    BorderColor DarkSlateBlue
    BackgroundColor LightYellow
}

skinparam ArrowColor DarkSlateBlue


start
  fork
    :atmen;
 fork again
    :denken;
  fork again
    :singen;
    end
  end fork
stop

	
@enduml

PlantUML version 1.2019.09(Mon Aug 26 18:19:51 CEST 2019)
(GPL source distribution)
Java Runtime: Java(TM) SE Runtime Environment
JVM: Java HotSpot(TM) 64-Bit Server VM
Java Version: 11.0.4+10-LTS
Operating System: Windows 10
OS Version: 10.0
Default Encoding: Cp1252
Language: de
Country: DE
--></g></svg>