<?xml version="1.0" encoding="UTF-8" standalone="no"?><svg xmlns="http://www.w3.org/2000/svg" xmlns:xlink="http://www.w3.org/1999/xlink" contentScriptType="application/ecmascript" contentStyleType="text/css" height="463px" preserveAspectRatio="none" style="width:192px;height:463px;" version="1.1" viewBox="0 0 192 463" width="192px" zoomAndPan="magnify"><defs><filter height="300%" id="f3cv9zym799ux" width="300%" x="-1" y="-1"><feGaussianBlur result="blurOut" stdDeviation="2.0"/><feColorMatrix in="blurOut" result="blurOut2" type="matrix" values="0 0 0 0 0 0 0 0 0 0 0 0 0 0 0 0 0 0 .4 0"/><feOffset dx="4.0" dy="4.0" in="blurOut2" result="blurOut3"/><feBlend in="SourceGraphic" in2="blurOut3" mode="normal"/></filter></defs><g><ellipse cx="88" cy="20" fill="#000000" filter="url(#f3cv9zym799ux)" rx="10" ry="10" style="stroke: none; stroke-width: 1.0;"/><rect fill="#000000" filter="url(#f3cv9zym799ux)" height="6" rx="2.5" ry="2.5" style="stroke: #000000; stroke-width: 1.0;" width="157.5" x="10" y="50"/><ellipse cx="32.5" cy="86" fill="#FFFAFA" filter="url(#f3cv9zym799ux)" rx="10" ry="10" style="stroke: #483D8B; stroke-width: 1.5;"/><path d="M29.0781,90 L32.0313,81.3281 L33.1875,81.3281 L36.1563,90 L34.9375,90 L34.0938,87.5469 L30.9063,87.5469 L30.0625,90 L29.0781,90 Z M31.2031,86.6719 L33.7969,86.6719 L32.5,82.875 L31.2031,86.6719 Z "/><ellipse cx="32.5" cy="141" fill="#FFFAFA" filter="url(#f3cv9zym799ux)" rx="10" ry="10" style="stroke: #483D8B; stroke-width: 1.5;"/><path d="M30.5781,145.5 L30.5781,136.8281 L33.0156,136.8281 Q33.7031,136.8281 34.1563,136.9063 Q34.8281,137.0313 35.2344,137.5625 Q35.6406,138.0938 35.6406,138.7656 Q35.6406,139.3906 35.2813,139.9531 Q35.1094,140.2188 34.8594,140.4531 Q34.6094,140.6875 33.9219,140.9844 Q34.9844,141.2813 35.5,141.9063 Q36.0156,142.5313 36.0156,143.3281 Q36.0156,143.875 35.75,144.3594 Q35.5,144.8438 35.0469,145.125 Q34.6094,145.3906 34.1094,145.4531 Q33.6094,145.5 32.8594,145.5 L30.5781,145.5 Z M31.7344,140.6563 L32.1406,140.6563 Q32.6406,140.6563 33.0625,140.5938 Q33.4844,140.5156 33.8281,140.2656 Q34.125,140.0625 34.2969,139.7344 Q34.4688,139.4063 34.4688,139.0313 Q34.4688,138.6875 34.3125,138.4219 Q34.1719,138.1406 33.9375,137.9844 Q33.6094,137.7813 33.1719,137.7344 Q32.75,137.6875 32.2813,137.6875 L31.7344,137.6875 L31.7344,140.6563 Z M31.7344,144.625 L32.7813,144.625 Q33.2344,144.625 33.625,144.5938 Q34.0156,144.5469 34.25,144.375 Q34.5,144.2031 34.6406,143.8906 Q34.7813,143.5781 34.7813,143.2344 Q34.7813,142.5 34.125,141.9375 Q33.4844,141.375 32.1563,141.375 L31.7344,141.375 L31.7344,144.625 Z "/><rect fill="#FFFAFA" filter="url(#f3cv9zym799ux)" height="34.0977" rx="12.5" ry="12.5" style="stroke: #483D8B; stroke-width: 1.5;" width="83" x="70.5" y="96.4512"/><text fill="#000000" font-family="Lucida Sans Typewriter" font-size="12" lengthAdjust="spacingAndGlyphs" textLength="63" x="80.5" y="118.0176">Mach' das</text><rect fill="#000000" filter="url(#f3cv9zym799ux)" height="6" rx="2.5" ry="2.5" style="stroke: #000000; stroke-width: 1.0;" width="157.5" x="10" y="171"/><ellipse cx="88" cy="208" fill="#FFFFFF" filter="url(#f3cv9zym799ux)" rx="11" ry="11" style="stroke: #000000; stroke-width: 1.0;"/><ellipse cx="88" cy="208" fill="#000000" rx="6" ry="6" style="stroke: #7F7F7F; stroke-width: 1.0;"/><ellipse cx="88" cy="239" fill="#FFFAFA" filter="url(#f3cv9zym799ux)" rx="10" ry="10" style="stroke: #483D8B; stroke-width: 1.5;"/><path d="M84.5781,243 L87.5313,234.3281 L88.6875,234.3281 L91.6563,243 L90.4375,243 L89.5938,240.5469 L86.4063,240.5469 L85.5625,243 L84.5781,243 Z M86.7031,239.6719 L89.2969,239.6719 L88,235.875 L86.7031,239.6719 Z "/><rect fill="#FFFAFA" filter="url(#f3cv9zym799ux)" height="34.0977" rx="12.5" ry="12.5" style="stroke: #483D8B; stroke-width: 1.5;" width="132" x="22" y="313"/><text fill="#000000" font-family="Lucida Sans Typewriter" font-size="12" lengthAdjust="spacingAndGlyphs" textLength="112" x="32" y="334.5664">immer wieder das</text><polygon fill="#F8F8FF" filter="url(#f3cv9zym799ux)" points="88,269,100,281,88,293,76,281,88,269" style="stroke: #483D8B; stroke-width: 1.5;"/><polygon fill="#F8F8FF" filter="url(#f3cv9zym799ux)" points="88,367.0977,88,367.0977,100,379.0977,88,391.0977,88,391.0977,76,379.0977,88,367.0977" style="stroke: #483D8B; stroke-width: 1.5;"/><text fill="#000000" font-family="Lucida Sans Typewriter" font-size="11" lengthAdjust="spacingAndGlyphs" textLength="56" x="100" y="376.7773">[weiter]</text><ellipse cx="88" cy="442.3408" fill="#FFFAFA" filter="url(#f3cv9zym799ux)" rx="10" ry="10" style="stroke: #483D8B; stroke-width: 1.5;"/><path d="M86.0781,446.8408 L86.0781,438.1689 L88.5156,438.1689 Q89.2031,438.1689 89.6563,438.2471 Q90.3281,438.3721 90.7344,438.9033 Q91.1406,439.4346 91.1406,440.1064 Q91.1406,440.7314 90.7813,441.2939 Q90.6094,441.5596 90.3594,441.7939 Q90.1094,442.0283 89.4219,442.3252 Q90.4844,442.6221 91,443.2471 Q91.5156,443.8721 91.5156,444.6689 Q91.5156,445.2158 91.25,445.7002 Q91,446.1846 90.5469,446.4658 Q90.1094,446.7314 89.6094,446.7939 Q89.1094,446.8408 88.3594,446.8408 L86.0781,446.8408 Z M87.2344,441.9971 L87.6406,441.9971 Q88.1406,441.9971 88.5625,441.9346 Q88.9844,441.8564 89.3281,441.6064 Q89.625,441.4033 89.7969,441.0752 Q89.9688,440.7471 89.9688,440.3721 Q89.9688,440.0283 89.8125,439.7627 Q89.6719,439.4814 89.4375,439.3252 Q89.1094,439.1221 88.6719,439.0752 Q88.25,439.0283 87.7813,439.0283 L87.2344,439.0283 L87.2344,441.9971 Z M87.2344,445.9658 L88.2813,445.9658 Q88.7344,445.9658 89.125,445.9346 Q89.5156,445.8877 89.75,445.7158 Q90,445.5439 90.1406,445.2314 Q90.2813,444.9189 90.2813,444.5752 Q90.2813,443.8408 89.625,443.2783 Q88.9844,442.7158 87.6563,442.7158 L87.2344,442.7158 L87.2344,445.9658 Z "/><line style="stroke: #483D8B; stroke-width: 1.5;" x1="32.5" x2="32.5" y1="56" y2="76"/><polygon fill="#483D8B" points="28.5,66,32.5,76,36.5,66,32.5,70" style="stroke: #483D8B; stroke-width: 1.0;"/><line style="stroke: #483D8B; stroke-width: 1.5;" x1="112" x2="112" y1="56" y2="96.4512"/><polygon fill="#483D8B" points="108,86.4512,112,96.4512,116,86.4512,112,90.4512" style="stroke: #483D8B; stroke-width: 1.0;"/><line style="stroke: #483D8B; stroke-width: 1.5;" x1="32.5" x2="32.5" y1="151" y2="171"/><polygon fill="#483D8B" points="28.5,161,32.5,171,36.5,161,32.5,165" style="stroke: #483D8B; stroke-width: 1.0;"/><line style="stroke: #483D8B; stroke-width: 1.5;" x1="112" x2="112" y1="130.5488" y2="171"/><polygon fill="#483D8B" points="108,161,112,171,116,161,112,165" style="stroke: #483D8B; stroke-width: 1.0;"/><line style="stroke: #483D8B; stroke-width: 1.5;" x1="88" x2="88" y1="30" y2="50"/><polygon fill="#483D8B" points="84,40,88,50,92,40,88,44" style="stroke: #483D8B; stroke-width: 1.0;"/><line style="stroke: #483D8B; stroke-width: 1.5;" x1="88" x2="88" y1="177" y2="197"/><polygon fill="#483D8B" points="84,187,88,197,92,187,88,191" style="stroke: #483D8B; stroke-width: 1.0;"/><line style="stroke: #483D8B; stroke-width: 1.5;" x1="88" x2="88" y1="293" y2="313"/><polygon fill="#483D8B" points="84,303,88,313,92,303,88,307" style="stroke: #483D8B; stroke-width: 1.0;"/><line style="stroke: #483D8B; stroke-width: 1.5;" x1="100" x2="166" y1="379.0977" y2="379.0977"/><polygon fill="#483D8B" points="162,340.0488,166,330.0488,170,340.0488,166,336.0488" style="stroke: #483D8B; stroke-width: 1.5;"/><line style="stroke: #483D8B; stroke-width: 1.5;" x1="166" x2="166" y1="281" y2="379.0977"/><line style="stroke: #483D8B; stroke-width: 1.5;" x1="166" x2="100" y1="281" y2="281"/><polygon fill="#483D8B" points="110,277,100,281,110,285,106,281" style="stroke: #483D8B; stroke-width: 1.0;"/><line style="stroke: #483D8B; stroke-width: 1.5;" x1="88" x2="88" y1="347.0977" y2="367.0977"/><polygon fill="#483D8B" points="84,357.0977,88,367.0977,92,357.0977,88,361.0977" style="stroke: #483D8B; stroke-width: 1.0;"/><line style="stroke: #483D8B; stroke-width: 1.5;" x1="88" x2="88" y1="249" y2="269"/><polygon fill="#483D8B" points="84,259,88,269,92,259,88,263" style="stroke: #483D8B; stroke-width: 1.0;"/><line style="stroke: #483D8B; stroke-width: 1.5;" x1="88" x2="88" y1="391.0977" y2="432.3408"/><polygon fill="#483D8B" points="84,422.3408,88,432.3408,92,422.3408,88,426.3408" style="stroke: #483D8B; stroke-width: 1.0;"/><text fill="#000000" font-family="Lucida Sans Typewriter" font-size="11" lengthAdjust="spacingAndGlyphs" textLength="70" x="92" y="412.5205">[aufhören]</text><!--
@startuml
skinparam DefaultFontName "Lucida Sans Typewriter"

skinparam Activity{
    BackgroundColor snow
    BorderColor DarkSlateBlue
    DiamondBackgroundColor ghostwhite
    DiamondBorderColor DarkSlateBlue

}
skinparam Note{
    BorderColor DarkSlateBlue
    BackgroundColor LightYellow
}

skinparam ArrowColor DarkSlateBlue


start
fork
    (A)
    detach
    (B)
 fork again
    :Mach' das;
  end fork 
stop


(A)
 repeat
 :immer wieder das;
  repeat while () is ([weiter])
  ->[aufhören];
(B) 


@enduml

PlantUML version 1.2019.09(Mon Aug 26 18:19:51 CEST 2019)
(GPL source distribution)
Java Runtime: Java(TM) SE Runtime Environment
JVM: Java HotSpot(TM) 64-Bit Server VM
Java Version: 11.0.4+10-LTS
Operating System: Windows 10
OS Version: 10.0
Default Encoding: Cp1252
Language: de
Country: DE
--></g></svg>