<?xml version="1.0" encoding="UTF-8" standalone="no"?><svg xmlns="http://www.w3.org/2000/svg" xmlns:xlink="http://www.w3.org/1999/xlink" contentScriptType="application/ecmascript" contentStyleType="text/css" height="447px" preserveAspectRatio="none" style="width:603px;height:447px;" version="1.1" viewBox="0 0 603 447" width="603px" zoomAndPan="magnify"><defs><filter height="300%" id="fbhw5zvg9xbds" width="300%" x="-1" y="-1"><feGaussianBlur result="blurOut" stdDeviation="2.0"/><feColorMatrix in="blurOut" result="blurOut2" type="matrix" values="0 0 0 0 0 0 0 0 0 0 0 0 0 0 0 0 0 0 .4 0"/><feOffset dx="4.0" dy="4.0" in="blurOut2" result="blurOut3"/><feBlend in="SourceGraphic" in2="blurOut3" mode="normal"/></filter></defs><g><rect fill="#FFFAFA" filter="url(#fbhw5zvg9xbds)" height="34.0977" rx="12.5" ry="12.5" style="stroke: #483D8B; stroke-width: 1.5;" width="62" x="20" y="237.0898"/><text fill="#000000" font-family="Lucida Sans Typewriter" font-size="12" lengthAdjust="spacingAndGlyphs" textLength="42" x="30" y="258.6563">Review</text><rect fill="#000000" filter="url(#fbhw5zvg9xbds)" height="6" rx="2.5" ry="2.5" style="stroke: #000000; stroke-width: 1.0;" width="268" x="92" y="176.541"/><polygon fill="#FFFAFA" filter="url(#fbhw5zvg9xbds)" points="104,202.541,208,202.541,218,219.5898,208,236.6387,104,236.6387" style="stroke: #483D8B; stroke-width: 1.5;"/><text fill="#000000" font-family="Lucida Sans Typewriter" font-size="12" lengthAdjust="spacingAndGlyphs" textLength="84" x="114" y="224.1074">ask Customer</text><polygon fill="#FFFAFA" filter="url(#fbhw5zvg9xbds)" points="104,271.6387,218,271.6387,208,288.6875,218,305.7363,104,305.7363" style="stroke: #483D8B; stroke-width: 1.5;"/><text fill="#000000" font-family="Lucida Sans Typewriter" font-size="12" lengthAdjust="spacingAndGlyphs" textLength="84" x="114" y="293.2051">get response</text><rect fill="#FFFAFA" filter="url(#fbhw5zvg9xbds)" height="34.0977" rx="12.5" ry="12.5" style="stroke: #483D8B; stroke-width: 1.5;" width="48" x="228" y="237.0898"/><text fill="#000000" font-family="Lucida Sans Typewriter" font-size="12" lengthAdjust="spacingAndGlyphs" textLength="28" x="238" y="258.6563">test</text><rect fill="#FFFAFA" filter="url(#fbhw5zvg9xbds)" height="34.0977" rx="12.5" ry="12.5" style="stroke: #483D8B; stroke-width: 1.5;" width="62" x="286" y="209.5898"/><text fill="#000000" font-family="Lucida Sans Typewriter" font-size="12" lengthAdjust="spacingAndGlyphs" textLength="42" x="296" y="231.1563">deploy</text><ellipse cx="317" cy="288.6875" fill="#FFFFFF" filter="url(#fbhw5zvg9xbds)" rx="10" ry="10" style="stroke: #000000; stroke-width: 1.5;"/><line style="stroke: #000000; stroke-width: 2.5;" x1="310.8128" x2="323.1872" y1="282.5003" y2="294.8747"/><line style="stroke: #000000; stroke-width: 2.5;" x1="323.1872" x2="310.8128" y1="282.5003" y2="294.8747"/><rect fill="#000000" filter="url(#fbhw5zvg9xbds)" height="6" rx="2.5" ry="2.5" style="stroke: #000000; stroke-width: 1.0;" width="268" x="92" y="325.7363"/><ellipse cx="194" cy="424.3582" fill="#FFFFFF" filter="url(#fbhw5zvg9xbds)" rx="11" ry="11" style="stroke: #000000; stroke-width: 1.0;"/><ellipse cx="194" cy="424.3582" fill="#000000" rx="6" ry="6" style="stroke: #7F7F7F; stroke-width: 1.0;"/><ellipse cx="429" cy="48.4434" fill="#000000" filter="url(#fbhw5zvg9xbds)" rx="10" ry="10" style="stroke: none; stroke-width: 1.0;"/><rect fill="#FFFAFA" filter="url(#fbhw5zvg9xbds)" height="34.0977" rx="12.5" ry="12.5" style="stroke: #483D8B; stroke-width: 1.5;" width="118" x="370" y="122.4434"/><text fill="#000000" font-family="Lucida Sans Typewriter" font-size="12" lengthAdjust="spacingAndGlyphs" textLength="98" x="380" y="144.0098">add Requirment</text><polygon fill="#F8F8FF" filter="url(#fbhw5zvg9xbds)" points="429,78.4434,441,90.4434,429,102.4434,417,90.4434,429,78.4434" style="stroke: #483D8B; stroke-width: 1.5;"/><polygon fill="#F8F8FF" filter="url(#fbhw5zvg9xbds)" points="429,351.7363,429,351.7363,441,363.7363,429,375.7363,429,375.7363,417,363.7363,429,351.7363" style="stroke: #483D8B; stroke-width: 1.5;"/><text fill="#000000" font-family="Lucida Sans Typewriter" font-size="11" lengthAdjust="spacingAndGlyphs" textLength="84" x="441" y="361.416">[open tasks]</text><line style="stroke: #483D8B; stroke-width: 1.5;" x1="317" x2="317" y1="243.6875" y2="278.6875"/><polygon fill="#483D8B" points="313,268.6875,317,278.6875,321,268.6875,317,272.6875" style="stroke: #483D8B; stroke-width: 1.0;"/><line style="stroke: #483D8B; stroke-width: 1.5;" x1="156" x2="156" y1="182.541" y2="202.541"/><polygon fill="#483D8B" points="152,192.541,156,202.541,160,192.541,156,196.541" style="stroke: #483D8B; stroke-width: 1.0;"/><line style="stroke: #483D8B; stroke-width: 1.5;" x1="252" x2="252" y1="182.541" y2="237.0898"/><polygon fill="#483D8B" points="248,227.0898,252,237.0898,256,227.0898,252,231.0898" style="stroke: #483D8B; stroke-width: 1.0;"/><line style="stroke: #483D8B; stroke-width: 1.5;" x1="317" x2="317" y1="182.541" y2="209.5898"/><polygon fill="#483D8B" points="313,199.5898,317,209.5898,321,199.5898,317,203.5898" style="stroke: #483D8B; stroke-width: 1.0;"/><line style="stroke: #483D8B; stroke-width: 1.5;" x1="156" x2="156" y1="305.7363" y2="325.7363"/><polygon fill="#483D8B" points="152,315.7363,156,325.7363,160,315.7363,156,319.7363" style="stroke: #483D8B; stroke-width: 1.0;"/><line style="stroke: #483D8B; stroke-width: 1.5;" x1="252" x2="252" y1="271.1875" y2="325.7363"/><polygon fill="#483D8B" points="248,315.7363,252,325.7363,256,315.7363,252,319.7363" style="stroke: #483D8B; stroke-width: 1.0;"/><line style="stroke: #483D8B; stroke-width: 1.5;" x1="429" x2="429" y1="102.4434" y2="122.4434"/><polygon fill="#483D8B" points="425,112.4434,429,122.4434,433,112.4434,429,116.4434" style="stroke: #483D8B; stroke-width: 1.0;"/><line style="stroke: #483D8B; stroke-width: 1.5;" x1="441" x2="567.5" y1="363.7363" y2="363.7363"/><polygon fill="#483D8B" points="563.5,229.5898,567.5,219.5898,571.5,229.5898,567.5,225.5898" style="stroke: #483D8B; stroke-width: 1.5;"/><line style="stroke: #483D8B; stroke-width: 1.5;" x1="567.5" x2="567.5" y1="90.4434" y2="363.7363"/><line style="stroke: #483D8B; stroke-width: 1.5;" x1="567.5" x2="441" y1="90.4434" y2="90.4434"/><polygon fill="#483D8B" points="451,86.4434,441,90.4434,451,94.4434,447,90.4434" style="stroke: #483D8B; stroke-width: 1.0;"/><line style="stroke: #483D8B; stroke-width: 1.5;" x1="429" x2="429" y1="58.4434" y2="78.4434"/><polygon fill="#483D8B" points="425,68.4434,429,78.4434,433,68.4434,429,72.4434" style="stroke: #483D8B; stroke-width: 1.0;"/><line style="stroke: #483D8B; stroke-width: 1.5;" x1="99" x2="99" y1="182.541" y2="186.541"/><line style="stroke: #483D8B; stroke-width: 1.5;" x1="99" x2="51" y1="186.541" y2="186.541"/><line style="stroke: #483D8B; stroke-width: 1.5;" x1="51" x2="51" y1="186.541" y2="237.0898"/><polygon fill="#483D8B" points="47,227.0898,51,237.0898,55,227.0898,51,231.0898" style="stroke: #483D8B; stroke-width: 1.0;"/><line style="stroke: #483D8B; stroke-width: 1.5;" x1="51" x2="51" y1="271.1875" y2="311.7363"/><line style="stroke: #483D8B; stroke-width: 1.5;" x1="51" x2="99" y1="311.7363" y2="311.7363"/><line style="stroke: #483D8B; stroke-width: 1.5;" x1="99" x2="99" y1="311.7363" y2="325.7363"/><polygon fill="#483D8B" points="95,315.7363,99,325.7363,103,315.7363,99,319.7363" style="stroke: #483D8B; stroke-width: 1.0;"/><line style="stroke: #483D8B; stroke-width: 1.5;" x1="429" x2="429" y1="156.541" y2="161.541"/><line style="stroke: #483D8B; stroke-width: 1.5;" x1="429" x2="194" y1="161.541" y2="161.541"/><line style="stroke: #483D8B; stroke-width: 1.5;" x1="194" x2="194" y1="161.541" y2="176.541"/><polygon fill="#483D8B" points="190,166.541,194,176.541,198,166.541,194,170.541" style="stroke: #483D8B; stroke-width: 1.0;"/><line style="stroke: #483D8B; stroke-width: 1.5;" x1="194" x2="194" y1="331.7363" y2="336.7363"/><line style="stroke: #483D8B; stroke-width: 1.5;" x1="194" x2="429" y1="336.7363" y2="336.7363"/><line style="stroke: #483D8B; stroke-width: 1.5;" x1="429" x2="429" y1="336.7363" y2="351.7363"/><polygon fill="#483D8B" points="425,341.7363,429,351.7363,433,341.7363,429,345.7363" style="stroke: #483D8B; stroke-width: 1.0;"/><line style="stroke: #483D8B; stroke-width: 1.5;" x1="429" x2="429" y1="375.7363" y2="398.3582"/><line style="stroke: #483D8B; stroke-width: 1.5;" x1="429" x2="194" y1="398.3582" y2="398.3582"/><line style="stroke: #483D8B; stroke-width: 1.5;" x1="194" x2="194" y1="398.3582" y2="413.3582"/><polygon fill="#483D8B" points="190,403.3582,194,413.3582,198,403.3582,194,407.3582" style="stroke: #483D8B; stroke-width: 1.0;"/><text fill="#000000" font-family="Lucida Sans Typewriter" font-size="11" lengthAdjust="spacingAndGlyphs" textLength="70" x="433" y="391.8582">[finished]</text><text fill="#000000" font-family="Lucida Sans Typewriter" font-size="18" lengthAdjust="spacingAndGlyphs" textLength="22" x="39.5" y="29.6465">QM</text><text fill="#000000" font-family="Lucida Sans Typewriter" font-size="18" lengthAdjust="spacingAndGlyphs" textLength="33" x="177" y="29.6465">Dev</text><text fill="#000000" font-family="Lucida Sans Typewriter" font-size="18" lengthAdjust="spacingAndGlyphs" textLength="88" x="465.5" y="29.6465">Customer</text><line style="stroke: #000000; stroke-width: 2.0;" x1="10" x2="10" y1="12.2969" y2="435.3582"/><line style="stroke: #000000; stroke-width: 2.0;" x1="87" x2="87" y1="12.2969" y2="435.3582"/><line style="stroke: #000000; stroke-width: 2.0;" x1="365" x2="365" y1="12.2969" y2="435.3582"/><line style="stroke: #000000; stroke-width: 2.0;" x1="591.5" x2="591.5" y1="12.2969" y2="435.3582"/><!--MD5=[b33dff1bb28788f41effaa695a4ea692]
@startuml
skinparam DefaultFontName "Lucida Sans Typewriter"

skinparam Activity{
    BackgroundColor snow
    BorderColor DarkSlateBlue
    DiamondBackgroundColor ghostwhite
    DiamondBorderColor DarkSlateBlue

}
skinparam Note{
    BorderColor DarkSlateBlue
    BackgroundColor LightYellow
}

skinparam ArrowColor DarkSlateBlue
  |QM|
  |Dev|
  |Customer|
  start
  repeat
  :add Requirment;
  |Dev|
  fork
    |QM|
    :Review;
    |Dev|
    fork again 
    :ask Customer>
	Detach
	:get response<
  fork again 
  :test;
  fork again
  :deploy;
  end
 |Dev|
  end fork
   |Customer|
     repeat while () is ([open tasks])
->[finished];
|Dev|
stop 
@enduml

PlantUML version 1.2019.11(Sun Sep 22 12:02:15 CEST 2019)
(GPL source distribution)
Java Runtime: Java(TM) SE Runtime Environment
JVM: Java HotSpot(TM) 64-Bit Server VM
Java Version: 11.0.4+10-LTS
Operating System: Windows 10
Default Encoding: Cp1252
Language: de
Country: DE
--></g></svg>