<?xml version="1.0" encoding="UTF-8" standalone="no"?><svg xmlns="http://www.w3.org/2000/svg" xmlns:xlink="http://www.w3.org/1999/xlink" contentScriptType="application/ecmascript" contentStyleType="text/css" height="470px" preserveAspectRatio="none" style="width:586px;height:470px;" version="1.1" viewBox="0 0 586 470" width="586px" zoomAndPan="magnify"><defs/><g><polygon fill="#000000" points="85.5552,60.2242,84.0894,62.2271,82.3556,65.1606,79.876,67.1376,77.2703,68.2187,75.1927,68.3126,72.5224,66.9605,70.0029,66.0772,68.0905,64.2838,67.0873,62.2307,66.4924,60.5959,65.9096,58.4606,64.9636,56.6232,65.6906,54.8291,66.3275,52.8638,68.7175,51.3095,70.3991,49.2928,72.4804,48.6231,74.9547,48.0464,78.1276,48.3891,79.8655,49.2087,81.8861,49.5802,84.3429,52.0973,85.1993,54.7545,85.5714,56.5676,85.15,59.5553" style="stroke: none; stroke-width: 1.0;"/><polygon fill="#F8F8F8" points="32.5,131.7918,32.5,132.002,42.0556,131.3775,51.6111,131.9851,61.1667,132.1915,70.7222,131.0784,80.2778,131.7141,89.8333,131.3653,99.3889,131.4083,108.9444,131.7237,118.5,131.7918,118.4118,131.5789,120.3384,132.6946,121.9551,133.0622,123.7781,133.9276,125.6262,134.8538,127.3388,135.453,127.3124,135.442,128.0921,137.2295,128.7935,138.9845,129.5905,140.7791,130.3414,142.5546,131,144.2918,131.1952,144.2918,131.2237,146.9975,131.2264,149.7031,131.0849,152.4087,131.1545,155.1143,131,157.82,131.2163,157.9095,130.0457,159.4957,129.7445,161.442,128.712,163.0854,128.2355,164.9591,127.3388,166.6588,127.2757,166.5063,125.5623,167.3699,123.8979,168.3516,122.0293,168.8405,120.2812,169.6202,118.5,170.32,118.5,170.6586,108.9444,170.7362,99.3889,170.316,89.8333,170.6072,80.2778,169.7475,70.7222,170.6043,61.1667,170.8682,51.6111,170.7645,42.0556,170.933,32.5,170.32,32.4384,170.1712,30.649,169.3869,28.8852,168.6641,27.1892,168.1051,25.4039,167.3305,23.6612,166.6588,23.871,166.7457,22.8751,164.8687,22.0911,163.0795,21.5348,161.3846,20.5269,159.5027,20,157.82,19.827,157.82,20.2163,155.1143,20.1452,152.4087,20.2448,149.7031,19.8927,146.9975,20,144.2918,20.0983,144.3325,20.9141,142.5994,21.319,140.696,22.1672,138.9763,22.9677,137.2368,23.6612,135.453,23.7443,135.6537,25.4284,134.7195,27.2557,134.131,28.8938,133.0857,30.6458,132.3155,32.5,131.7918" style="stroke: #383838; stroke-width: 1.5;"/><text fill="#000000" font-family="FG Virgil" font-size="12" lengthAdjust="spacingAndGlyphs" textLength="91" x="30" y="155.1359">add Requirment</text><polygon fill="#F8F8F8" points="75.5,87.7918,75.5495,87.8414,77.8023,90.0942,80.3456,92.6374,82.7942,95.086,84.9319,97.2237,87.5,99.7918,87.4817,99.7735,84.9995,102.0913,82.6096,104.5014,80.2839,106.9758,77.737,109.2289,75.5,111.7918,75.6305,111.9223,72.9514,109.2433,70.6534,106.9452,68.4018,104.6936,65.8798,102.1716,63.5,99.7918,63.5161,99.8079,65.8925,97.3843,68.3421,95.0339,70.7564,92.6482,73.238,90.3299,75.5,87.7918" style="stroke: #383838; stroke-width: 1.5;"/><polygon fill="#F8F8F8" points="75.5,374.3762,75.5495,374.4258,77.8023,376.6786,80.3456,379.2218,82.7942,381.6704,84.9319,383.8081,87.5,386.3762,87.4817,386.3579,84.9995,388.6757,82.6096,391.0858,80.2839,393.5602,77.737,395.8133,75.5,398.3762,75.6305,398.5067,72.9514,395.8277,70.6534,393.5296,68.4018,391.278,65.8798,388.756,63.5,386.3762,63.5161,386.3923,65.8925,383.9687,68.3421,381.6183,70.7564,379.2326,73.238,376.9143,75.5,374.3762" style="stroke: #383838; stroke-width: 1.5;"/><text fill="#000000" font-family="FG Virgil" font-size="11" lengthAdjust="spacingAndGlyphs" textLength="70" x="87.5" y="381.6243">[open tasks]</text><polygon fill="#000000" points="226.5,190.32,226.5,190.5301,236.4444,189.9056,246.3889,190.5132,256.3333,190.7196,266.2778,189.6066,276.2222,190.2422,286.1667,189.8935,296.1111,189.9365,306.0556,190.2518,316,189.6286,325.9444,190.8736,335.8889,189.6897,345.8333,190.1222,355.7778,190.7519,365.7222,190.2342,375.6667,190.3882,385.6111,190.288,395.5556,190.4985,405.5,190.5591,415.4444,190.9056,425.3889,190.991,435.3333,190.9992,445.2778,190.5746,455.2222,190.7835,465.1667,191.0222,475.1111,189.5988,485.0556,190.9985,495,190.32,494.9622,190.2286,495.4216,190.6308,495.644,190.4604,496.0519,190.7382,496.5088,191.1341,496.7678,191.0522,496.7528,191.046,496.9466,191.4192,497.1649,191.8025,497.3353,192.1659,497.3524,192.4659,497.5,192.82,497.5957,192.82,497.3092,193.02,497.5948,193.22,497.6827,193.42,497.6482,193.62,497.5,193.82,497.6888,193.8982,497.2048,194.1119,497.0063,194.4439,496.8693,194.8013,496.8961,195.2267,496.7678,195.5877,496.7427,195.5272,496.5011,195.944,496.0384,195.8268,495.6633,195.9214,495.3827,196.2438,495,196.32,495,195.6531,485.0556,195.8008,475.1111,196.9689,465.1667,196.7556,455.2222,197.0544,445.2778,195.9982,435.3333,196.6392,425.3889,196.9104,415.4444,195.8475,405.5,196.2241,395.5556,196.4459,385.6111,196.9717,375.6667,196.3158,365.7222,196.7825,355.7778,195.7662,345.8333,195.6427,335.8889,196.8236,325.9444,195.603,316,196.8289,306.0556,196.5266,296.1111,196.052,286.1667,195.9662,276.2222,196.7787,266.2778,196.0206,256.3333,196.9118,246.3889,195.7672,236.4444,196.9374,226.5,196.32,226.5618,196.4691,226.1777,196.2489,225.7989,196.0416,225.532,196.1044,225.1641,195.9231,224.7322,195.5877,224.7844,195.6093,224.6684,195.2684,224.3992,194.864,224.5135,194.6185,224.1941,194.1933,224,193.82,224.0575,193.82,223.7972,193.62,223.8649,193.42,224.1769,193.22,224.1433,193.02,224,192.82,223.9868,192.8145,224.0472,192.4253,224.2255,192.0849,224.228,191.6718,224.7135,191.4586,224.7322,191.0522,224.8266,191.2799,225.1529,191.0679,225.528,190.9733,225.7755,190.5707,226.1576,190.4933,226.5,190.32" style="stroke: #000000; stroke-width: 1.0;"/><polygon fill="#F8F8F8" points="236,216.32,236,216.5301,246.3,215.9056,256.6,216.5132,266.9,216.7196,277.2,215.6066,287.5,216.2422,297.8,215.8935,308.1,215.9365,318.4,216.2518,328.7,215.6286,339,216.32,339.1638,216.405,340.8135,220.076,342.9415,223.9952,345.1278,227.9447,346.9746,231.718,349,235.584,349.0202,235.5945,346.9905,239.4319,345.0528,243.3171,343.0707,247.1792,341.1733,251.0852,339,254.8481,339,255.5191,328.7,255.5273,318.4,255.1027,308.1,255.3117,297.8,255.5503,287.5,254.1269,277.2,255.5266,266.9,254.5516,256.6,255.3819,246.3,254.3531,236,254.8481,235.9772,254.8481,236.2472,247.1425,235.9838,239.4368,236.0351,231.7312,236.1129,224.0256,236,216.32" style="stroke: #383838; stroke-width: 1.5;"/><text fill="#000000" font-family="FG Virgil" font-size="12" lengthAdjust="spacingAndGlyphs" textLength="83" x="246" y="239.664">ask Customer</text><polygon fill="#F8F8F8" points="239,289.8481,239,290.0583,248.7273,289.4338,258.4545,290.0414,268.1818,290.2478,277.9091,289.1347,287.6364,289.7704,297.3636,289.4216,307.0909,289.4646,316.8182,289.7799,326.5455,289.1567,336.2727,290.4017,346,289.8481,345.8135,289.7513,343.9415,293.6705,342.1278,297.62,339.9746,301.3934,338.0202,305.2698,336,309.1122,335.9905,309.1072,338.0528,312.9924,340.0707,316.8545,342.1733,320.7605,344.1985,324.6265,346,328.3762,346,329.0555,336.2727,328.6308,326.5455,328.8398,316.8182,329.0784,307.0909,327.655,297.3636,329.0547,287.6364,328.0797,277.9091,328.91,268.1818,327.8812,258.4545,328.3077,248.7273,329.1178,239,328.3762,238.9838,328.3762,239.0351,320.6706,239.1129,312.965,239.1387,305.2593,238.9987,297.5537,239,289.8481" style="stroke: #383838; stroke-width: 1.5;"/><text fill="#000000" font-family="FG Virgil" font-size="12" lengthAdjust="spacingAndGlyphs" textLength="77" x="249" y="313.1922">get response</text><polygon fill="#F8F8F8" points="371.5,253.084,371.5,253.1541,375.7,252.9459,379.9,253.1484,384.1,253.2172,388.3,252.8462,392.5,253.084,392.4901,253.0601,394.2134,253.6849,395.9866,254.4304,397.7946,255.2597,399.4829,255.8,401.3388,256.7452,401.5093,256.8158,401.877,258.4326,402.7424,260.2555,403.6686,262.1036,404.2414,263.8053,405,265.584,405.0227,265.584,404.9894,268.2896,405.0595,270.9953,405.0797,273.7009,405.1952,276.4065,405,279.1122,405.2067,279.1978,404.477,280.9666,403.6139,282.6802,402.9461,284.4746,402.2873,286.2728,401.3388,287.951,401.2468,287.7289,399.6576,288.8922,397.7655,289.3241,396.1036,290.3121,394.2046,290.7275,392.5,291.6122,392.5,291.5893,388.3,291.8594,384.1,291.5959,379.9,291.6473,375.7,291.725,371.5,291.6122,371.5531,291.7403,369.7317,290.8787,368.0011,290.2361,366.1237,289.2392,364.4652,288.7708,362.6612,287.951,362.83,288.0209,362.0658,286.2399,361.3855,284.4936,360.3157,282.5861,359.5314,280.7967,359,279.1122,358.7929,279.1122,358.9804,276.4065,358.9345,273.7009,359.2271,270.9953,358.9418,268.2896,359,265.584,358.8944,265.5403,359.8025,263.8454,360.2591,261.9634,361.0368,260.2145,362.1288,258.5957,362.6612,256.7452,362.7167,256.8794,364.5226,256.2391,366.1557,255.1816,368.0052,254.6468,369.8075,253.9981,371.5,253.084" style="stroke: #383838; stroke-width: 1.5;"/><text fill="#000000" font-family="FG Virgil" font-size="12" lengthAdjust="spacingAndGlyphs" textLength="26" x="369" y="276.4281">test</text><polygon fill="#F8F8F8" points="442,225.584,442,225.6541,448.2,225.4459,454.4,225.6484,460.6,225.7172,466.8,225.3462,473,225.584,472.9901,225.5601,474.7134,226.1849,476.4866,226.9304,478.2946,227.7597,479.9829,228.3,481.8388,229.2452,482.0093,229.3158,482.377,230.9326,483.2424,232.7555,484.1686,234.6036,484.7414,236.3053,485.5,238.084,485.5227,238.084,485.4894,240.7896,485.5595,243.4953,485.5797,246.2009,485.6952,248.9065,485.5,251.6122,485.7067,251.6978,484.977,253.4666,484.1139,255.1802,483.4461,256.9746,482.7873,258.7728,481.8388,260.451,481.7468,260.2289,480.1576,261.3922,478.2655,261.8241,476.6036,262.8121,474.7046,263.2275,473,264.1122,473,264.0893,466.8,264.3594,460.6,264.0959,454.4,264.1473,448.2,264.225,442,264.1122,442.0531,264.2403,440.2317,263.3787,438.5011,262.7361,436.6237,261.7392,434.9652,261.2708,433.1612,260.451,433.33,260.5209,432.5658,258.7399,431.8855,256.9936,430.8157,255.0861,430.0314,253.2967,429.5,251.6122,429.2929,251.6122,429.4804,248.9065,429.4345,246.2009,429.7271,243.4953,429.4418,240.7896,429.5,238.084,429.3944,238.0403,430.3025,236.3454,430.7591,234.4634,431.5368,232.7145,432.6288,231.0957,433.1612,229.2452,433.2167,229.3794,435.0226,228.7391,436.6557,227.6816,438.5052,227.1468,440.3075,226.4981,442,225.584" style="stroke: #383838; stroke-width: 1.5;"/><text fill="#000000" font-family="FG Virgil" font-size="12" lengthAdjust="spacingAndGlyphs" textLength="36" x="439.5" y="248.9281">deploy</text><polygon fill="#FFFFFF" points="467.5552,311.5445,466.0894,313.5474,464.3556,316.481,461.876,318.458,459.2703,319.5391,457.1927,319.6329,454.5224,318.2808,452.0029,317.3975,450.0905,315.6041,449.0873,313.551,448.4924,311.9163,447.9096,309.781,446.9636,307.9435,447.6906,306.1494,448.3275,304.1842,450.7175,302.6299,452.3991,300.6131,454.4804,299.9435,456.9547,299.3667,460.1276,299.7094,461.8655,300.529,463.8861,300.9005,466.3429,303.4176,467.1993,306.0748,467.5714,307.8879,467.15,310.8757" style="stroke: #000000; stroke-width: 1.5;"/><path d="M451.3128,302.925 L451.3789,302.991 L453.6575,305.2696 L456.3233,307.9355 L458.863,310.4752 L460.9881,312.6003 L463.6872,315.2993 " fill="none" style="stroke: #000000; stroke-width: 2.5;"/><path d="M463.6872,302.925 L463.7532,302.991 L461.0821,305.2696 L458.7982,307.9355 L456.3882,310.4752 L453.5635,312.6003 L451.3128,315.2993 " fill="none" style="stroke: #000000; stroke-width: 2.5;"/><polygon fill="#000000" points="226.5,348.3762,226.5,348.5864,236.4444,347.9619,246.3889,348.5695,256.3333,348.7759,266.2778,347.6628,276.2222,348.2985,286.1667,347.9497,296.1111,347.9927,306.0556,348.3081,316,347.6848,325.9444,348.9299,335.8889,347.7459,345.8333,348.1784,355.7778,348.8082,365.7222,348.2904,375.6667,348.4445,385.6111,348.3443,395.5556,348.5547,405.5,348.6153,415.4444,348.9619,425.3889,349.0473,435.3333,349.0555,445.2778,348.6308,455.2222,348.8398,465.1667,349.0784,475.1111,347.655,485.0556,349.0547,495,348.3762,494.9622,348.2849,495.4216,348.6871,495.644,348.5167,496.0519,348.7945,496.5088,349.1904,496.7678,349.1084,496.7528,349.1022,496.9466,349.4754,497.1649,349.8588,497.3353,350.2222,497.3524,350.5222,497.5,350.8762,497.5957,350.8762,497.3092,351.0762,497.5948,351.2762,497.6827,351.4762,497.6482,351.6762,497.5,351.8762,497.6888,351.9544,497.2048,352.1681,497.0063,352.5001,496.8693,352.8576,496.8961,353.2829,496.7678,353.644,496.7427,353.5835,496.5011,354.0003,496.0384,353.8831,495.6633,353.9777,495.3827,354.3001,495,354.3762,495,353.7094,485.0556,353.8571,475.1111,355.0252,465.1667,354.8119,455.2222,355.1107,445.2778,354.0544,435.3333,354.6954,425.3889,354.9666,415.4444,353.9038,405.5,354.2804,395.5556,354.5022,385.6111,355.028,375.6667,354.372,365.7222,354.8388,355.7778,353.8224,345.8333,353.699,335.8889,354.8798,325.9444,353.6593,316,354.8852,306.0556,354.5828,296.1111,354.1083,286.1667,354.0224,276.2222,354.835,266.2778,354.0769,256.3333,354.9681,246.3889,353.8235,236.4444,354.9936,226.5,354.3762,226.5618,354.5254,226.1777,354.3052,225.7989,354.0979,225.532,354.1606,225.1641,353.9794,224.7322,353.644,224.7844,353.6656,224.6684,353.3246,224.3992,352.9203,224.5135,352.6747,224.1941,352.2495,224,351.8762,224.0575,351.8762,223.7972,351.6762,223.8649,351.4762,224.1769,351.2762,224.1433,351.0762,224,350.8762,223.9868,350.8707,224.0472,350.4816,224.2255,350.1412,224.228,349.728,224.7135,349.5149,224.7322,349.1084,224.8266,349.3362,225.1529,349.1241,225.528,349.0296,225.7755,348.627,226.1576,348.5495,226.5,348.3762" style="stroke: #000000; stroke-width: 1.0;"/><polygon fill="#FFFFFF" points="412.5608,450.2878,410.9484,452.4909,409.0412,455.7179,406.3136,457.8926,403.4474,459.0818,401.162,459.185,398.2247,457.6977,395.4532,456.7261,393.3495,454.7533,392.2461,452.4949,391.5917,450.6967,390.9506,448.3479,389.91,446.3266,390.7096,444.3532,391.4102,442.1914,394.0393,440.4816,395.889,438.2633,398.1784,437.5266,400.9001,436.8922,404.3904,437.2691,406.3021,438.1707,408.5247,438.5793,411.2272,441.3481,412.1693,444.2711,412.5786,446.2655,412.115,449.552" style="stroke: #000000; stroke-width: 1.0;"/><polygon fill="#000000" points="407.5331,449.0716,406.6536,450.2733,405.6134,452.0334,404.1256,453.2196,402.5622,453.8683,401.3156,453.9246,399.7135,453.1134,398.2017,452.5834,397.0543,451.5073,396.4524,450.2755,396.0955,449.2946,395.7458,448.0134,395.1782,446.911,395.6143,445.8345,395.9965,444.6554,397.4305,443.7228,398.4394,442.5128,399.6882,442.1109,401.1728,441.7649,403.0766,441.9705,404.1193,442.4623,405.3317,442.6852,406.8057,444.1954,407.3196,445.7898,407.5429,446.8776,407.29,448.6703" style="stroke: #7F7F7F; stroke-width: 1.0;"/><polygon fill="#F8F8F8" points="520,253.084,520,253.1541,526.6,252.9459,533.2,253.1484,539.8,253.2172,546.4,252.8462,553,253.084,552.9901,253.0601,554.7134,253.6849,556.4866,254.4304,558.2946,255.2597,559.9829,255.8,561.8388,256.7452,562.0093,256.8158,562.377,258.4326,563.2424,260.2555,564.1686,262.1036,564.7414,263.8053,565.5,265.584,565.5227,265.584,565.4894,268.2896,565.5595,270.9953,565.5797,273.7009,565.6952,276.4065,565.5,279.1122,565.7067,279.1978,564.977,280.9666,564.1139,282.6802,563.4461,284.4746,562.7873,286.2728,561.8388,287.951,561.7468,287.7289,560.1576,288.8922,558.2655,289.3241,556.6036,290.3121,554.7046,290.7275,553,291.6122,553,291.5893,546.4,291.8594,539.8,291.5959,533.2,291.6473,526.6,291.725,520,291.6122,520.0531,291.7403,518.2317,290.8787,516.5011,290.2361,514.6237,289.2392,512.9652,288.7708,511.1612,287.951,511.33,288.0209,510.5658,286.2399,509.8855,284.4936,508.8157,282.5861,508.0314,280.7967,507.5,279.1122,507.2929,279.1122,507.4804,276.4065,507.4345,273.7009,507.7271,270.9953,507.4418,268.2896,507.5,265.584,507.3944,265.5403,508.3025,263.8454,508.7591,261.9634,509.5368,260.2145,510.6288,258.5957,511.1612,256.7452,511.2167,256.8794,513.0226,256.2391,514.6557,255.1816,516.5052,254.6468,518.3075,253.9981,520,253.084" style="stroke: #383838; stroke-width: 1.5;"/><text fill="#000000" font-family="FG Virgil" font-size="12" lengthAdjust="spacingAndGlyphs" textLength="38" x="517.5" y="276.4281">Review</text><path d="M75.5,111.7918 L75.5934,111.7918 L75.3159,115.7918 L75.5859,119.7918 L75.6776,123.7918 L75.1829,127.7918 L75.5,131.7918 " fill="#383838" style="stroke: #383838; stroke-width: 1.5;"/><polygon fill="#383838" points="71.5,121.7918,71.565,121.8178,72.1718,123.7405,73.1598,125.8158,74.0237,127.8413,74.4792,129.7035,75.5,131.7918,75.4759,131.7822,76.168,129.739,76.9813,127.7444,77.8789,125.7834,78.486,123.7062,79.5,121.7918,79.6305,121.9223,78.5514,122.4433,77.8534,123.3452,77.2018,124.2936,76.2798,124.9716,75.5,125.7918,75.5161,125.8079,74.6925,124.9843,73.9421,124.2339,73.1564,123.4482,72.438,122.7299,71.5,121.7918" style="stroke: #383838; stroke-width: 1.0;"/><path d="M87.5,386.3762 L87.5,386.6565 L97.7083,385.8238 L107.9167,386.6339 L118.125,386.9091 L128.3333,385.425 L138.5417,386.2726 L148.75,385.8076 L158.9583,385.8649 L169.1667,386.2853 L179.375,385.4544 L189.5833,387.1144 L199.7917,385.5358 L210,386.3762 " fill="#383838" style="stroke: #383838; stroke-width: 1.5;"/><polygon fill="#383838" points="206,245.584,206.065,245.61,206.6718,243.5327,207.6598,241.6079,208.5237,239.6335,208.9792,237.4957,210,235.584,209.9759,235.5744,210.668,237.5312,211.4813,239.5365,212.3789,241.5756,212.986,243.4984,214,245.584,214.1305,245.7145,213.0514,244.6355,212.3534,243.9374,211.7018,243.2858,210.7798,242.3638,210,241.584,210.0161,241.6001,209.1925,242.3765,208.4421,243.2261,207.6564,244.0404,206.938,244.9221,206,245.584" style="stroke: #383838; stroke-width: 1.5;"/><path d="M210,99.7918 L210.2802,99.7918 L209.4476,109.674 L210.2577,119.5563 L210.5329,129.4385 L209.0488,139.3207 L209.8964,149.2029 L209.4313,159.0851 L209.4887,168.9674 L209.9091,178.8496 L209.0782,188.7318 L210.7382,198.614 L209.1596,208.4962 L209.7363,218.3785 L210.5759,228.2607 L209.8856,238.1429 L210.091,248.0251 L209.9574,257.9074 L210.238,267.7896 L210.3188,277.6718 L210.7809,287.554 L210.8947,297.4362 L210.9057,307.3185 L210.3395,317.2007 L210.6181,327.0829 L210.9363,336.9651 L209.0384,346.8473 L210.9047,356.7296 L209.6047,366.6118 L210.7117,376.494 L210,386.3762 " fill="#383838" style="stroke: #383838; stroke-width: 1.5;"/><path d="M210,99.7918 L210,100.0721 L199.7917,99.2394 L189.5833,100.0495 L179.375,100.3247 L169.1667,98.8406 L158.9583,99.6882 L148.75,99.2232 L138.5417,99.2805 L128.3333,99.701 L118.125,98.87 L107.9167,100.53 L97.7083,98.9515 L87.5,99.7918 " fill="#383838" style="stroke: #383838; stroke-width: 1.5;"/><polygon fill="#383838" points="97.5,95.7918,97.526,95.8569,95.4487,96.4636,93.5239,97.4516,91.5495,98.3155,89.4117,98.771,87.5,99.7918,87.4904,99.7678,89.4472,100.4598,91.4525,101.2731,93.4916,102.1707,95.4144,102.7779,97.5,103.7918,97.6305,103.9223,96.5514,102.8433,95.8534,102.1452,95.2018,101.4936,94.2798,100.5716,93.5,99.7918,93.5161,99.8079,94.2925,98.9843,95.1421,98.2339,95.9564,97.4482,96.838,96.7299,97.5,95.7918" style="stroke: #383838; stroke-width: 1.0;"/><path d="M75.5,67.7918 L75.5934,67.7918 L75.3159,71.7918 L75.5859,75.7918 L75.6776,79.7918 L75.1829,83.7918 L75.5,87.7918 " fill="#383838" style="stroke: #383838; stroke-width: 1.5;"/><polygon fill="#383838" points="71.5,77.7918,71.565,77.8178,72.1718,79.7405,73.1598,81.8158,74.0237,83.8413,74.4792,85.7035,75.5,87.7918,75.4759,87.7822,76.168,85.739,76.9813,83.7444,77.8789,81.7834,78.486,79.7062,79.5,77.7918,79.6305,77.9223,78.5514,78.4433,77.8534,79.3452,77.2018,80.2936,76.2798,80.9716,75.5,81.7918,75.5161,81.8079,74.6925,80.9843,73.9421,80.2339,73.1564,79.4482,72.438,78.7299,71.5,77.7918" style="stroke: #383838; stroke-width: 1.0;"/><path d="M457.5,264.1122 L457.5934,264.1122 L457.3159,271.1122 L457.5859,278.1122 L457.6776,285.1122 L457.1829,292.1122 L457.5,299.1122 " fill="#383838" style="stroke: #383838; stroke-width: 1.5;"/><polygon fill="#383838" points="453.5,289.1122,453.565,289.1382,454.1718,291.0609,455.1598,293.1361,456.0237,295.1616,456.4792,297.0238,457.5,299.1122,457.4759,299.1025,458.168,297.0594,458.9813,295.0647,459.8789,293.1037,460.486,291.0266,461.5,289.1122,461.6305,289.2426,460.5514,289.7636,459.8534,290.6655,459.2018,291.614,458.2798,292.2919,457.5,293.1122,457.5161,293.1282,456.6925,292.3046,455.9421,291.5542,455.1564,290.7685,454.438,290.0502,453.5,289.1122" style="stroke: #383838; stroke-width: 1.0;"/><path d="M287.5,196.32 L287.5934,196.32 L287.3159,200.32 L287.5859,204.32 L287.6776,208.32 L287.1829,212.32 L287.5,216.32 " fill="#383838" style="stroke: #383838; stroke-width: 1.5;"/><polygon fill="#383838" points="283.5,206.32,283.565,206.346,284.1718,208.2687,285.1598,210.3439,286.0237,212.3694,286.4792,214.2316,287.5,216.32,287.4759,216.3103,288.168,214.2672,288.9813,212.2725,289.8789,210.3115,290.486,208.2344,291.5,206.32,291.6305,206.4505,290.5514,206.9714,289.8534,207.8733,289.2018,208.8218,288.2798,209.4997,287.5,210.32,287.5161,210.336,286.6925,209.5124,285.9421,208.762,285.1564,207.9763,284.438,207.258,283.5,206.32" style="stroke: #383838; stroke-width: 1.0;"/><path d="M382,196.32 L382.2802,196.32 L381.4476,205.7806 L382.2577,215.2413 L382.5329,224.702 L381.0488,234.1627 L381.8964,243.6233 L382,253.084 " fill="#383838" style="stroke: #383838; stroke-width: 1.5;"/><polygon fill="#383838" points="378,243.084,378.065,243.11,378.6718,245.0327,379.6598,247.1079,380.5237,249.1335,380.9792,250.9957,382,253.084,381.9759,253.0744,382.668,251.0312,383.4813,249.0365,384.3789,247.0756,384.986,244.9984,386,243.084,386.1305,243.2145,385.0514,243.7355,384.3534,244.6374,383.7018,245.5858,382.7798,246.2638,382,247.084,382.0161,247.1001,381.1925,246.2765,380.4421,245.5261,379.6564,244.7404,378.938,244.0221,378,243.084" style="stroke: #383838; stroke-width: 1.0;"/><path d="M457.5,196.32 L457.5934,196.32 L457.3159,202.1728 L457.5859,208.0256 L457.6776,213.8784 L457.1829,219.7312 L457.5,225.584 " fill="#383838" style="stroke: #383838; stroke-width: 1.5;"/><polygon fill="#383838" points="453.5,215.584,453.565,215.61,454.1718,217.5327,455.1598,219.6079,456.0237,221.6335,456.4792,223.4957,457.5,225.584,457.4759,225.5744,458.168,223.5312,458.9813,221.5365,459.8789,219.5756,460.486,217.4984,461.5,215.584,461.6305,215.7145,460.5514,216.2355,459.8534,217.1374,459.2018,218.0858,458.2798,218.7638,457.5,219.584,457.5161,219.6001,456.6925,218.7765,455.9421,218.0261,455.1564,217.2404,454.438,216.5221,453.5,215.584" style="stroke: #383838; stroke-width: 1.0;"/><path d="M287.5,328.3762 L287.5934,328.3762 L287.3159,332.3762 L287.5859,336.3762 L287.6776,340.3762 L287.1829,344.3762 L287.5,348.3762 " fill="#383838" style="stroke: #383838; stroke-width: 1.5;"/><polygon fill="#383838" points="283.5,338.3762,283.565,338.4022,284.1718,340.3249,285.1598,342.4001,286.0237,344.4257,286.4792,346.2879,287.5,348.3762,287.4759,348.3666,288.168,346.3234,288.9813,344.3287,289.8789,342.3678,290.486,340.2906,291.5,338.3762,291.6305,338.5067,290.5514,339.0277,289.8534,339.9296,289.2018,340.878,288.2798,341.556,287.5,342.3762,287.5161,342.3923,286.6925,341.5687,285.9421,340.8183,285.1564,340.0326,284.438,339.3143,283.5,338.3762" style="stroke: #383838; stroke-width: 1.0;"/><path d="M382,291.6122 L382.2802,291.6122 L381.4476,301.0728 L382.2577,310.5335 L382.5329,319.9942 L381.0488,329.4549 L381.8964,338.9155 L382,348.3762 " fill="#383838" style="stroke: #383838; stroke-width: 1.5;"/><polygon fill="#383838" points="378,338.3762,378.065,338.4022,378.6718,340.3249,379.6598,342.4001,380.5237,344.4257,380.9792,346.2879,382,348.3762,381.9759,348.3666,382.668,346.3234,383.4813,344.3287,384.3789,342.3678,384.986,340.2906,386,338.3762,386.1305,338.5067,385.0514,339.0277,384.3534,339.9296,383.7018,340.878,382.7798,341.556,382,342.3762,382.0161,342.3923,381.1925,341.5687,380.4421,340.8183,379.6564,340.0326,378.938,339.3143,378,338.3762" style="stroke: #383838; stroke-width: 1.0;"/><path d="M490.5,196.32 L490.5934,196.32 L490.3159,197.12 L490.5859,197.92 L490.6776,198.72 L490.1829,199.52 L490.5,200.32 " fill="#383838" style="stroke: #383838; stroke-width: 1.5;"/><path d="M490.5,200.32 L490.5,200.6002 L499.7,199.7675 L508.9,200.5777 L518.1,200.8529 L527.3,199.3688 L536.5,200.32 " fill="#383838" style="stroke: #383838; stroke-width: 1.5;"/><path d="M536.5,200.32 L536.7802,200.32 L535.9476,210.8728 L536.7577,221.4256 L537.0329,231.9784 L535.5488,242.5312 L536.5,253.084 " fill="#383838" style="stroke: #383838; stroke-width: 1.5;"/><polygon fill="#383838" points="532.5,243.084,532.565,243.11,533.1718,245.0327,534.1598,247.1079,535.0237,249.1335,535.4792,250.9957,536.5,253.084,536.4759,253.0744,537.168,251.0312,537.9813,249.0365,538.8789,247.0756,539.486,244.9984,540.5,243.084,540.6305,243.2145,539.5514,243.7355,538.8534,244.6374,538.2018,245.5858,537.2798,246.2638,536.5,247.084,536.5161,247.1001,535.6925,246.2765,534.9421,245.5261,534.1564,244.7404,533.438,244.0221,532.5,243.084" style="stroke: #383838; stroke-width: 1.0;"/><path d="M536.5,291.6122 L536.5934,291.6122 L536.3159,300.165 L536.5859,308.7178 L536.6776,317.2706 L536.1829,325.8234 L536.5,334.3762 " fill="#383838" style="stroke: #383838; stroke-width: 1.5;"/><path d="M536.5,334.3762 L536.5,334.6565 L527.3,333.8238 L518.1,334.6339 L508.9,334.9091 L499.7,333.425 L490.5,334.3762 " fill="#383838" style="stroke: #383838; stroke-width: 1.5;"/><path d="M490.5,334.3762 L490.5934,334.3762 L490.3159,337.1762 L490.5859,339.9762 L490.6776,342.7762 L490.1829,345.5762 L490.5,348.3762 " fill="#383838" style="stroke: #383838; stroke-width: 1.5;"/><polygon fill="#383838" points="486.5,338.3762,486.565,338.4022,487.1718,340.3249,488.1598,342.4001,489.0237,344.4257,489.4792,346.2879,490.5,348.3762,490.4759,348.3666,491.168,346.3234,491.9813,344.3287,492.8789,342.3678,493.486,340.2906,494.5,338.3762,494.6305,338.5067,493.5514,339.0277,492.8534,339.9296,492.2018,340.878,491.2798,341.556,490.5,342.3762,490.5161,342.3923,489.6925,341.5687,488.9421,340.8183,488.1564,340.0326,487.438,339.3143,486.5,338.3762" style="stroke: #383838; stroke-width: 1.0;"/><path d="M75.5,170.32 L75.5934,170.32 L75.3159,171.32 L75.5859,172.32 L75.6776,173.32 L75.1829,174.32 L75.5,175.32 " fill="#383838" style="stroke: #383838; stroke-width: 1.5;"/><path d="M75.5,175.32 L75.5,175.6002 L85.3788,174.7675 L95.2576,175.5777 L105.1364,175.8529 L115.0152,174.3688 L124.8939,175.2163 L134.7727,174.7513 L144.6515,174.8086 L154.5303,175.2291 L164.4091,174.3981 L174.2879,176.0581 L184.1667,174.4796 L194.0455,175.0563 L203.9242,175.8959 L213.803,175.2056 L223.6818,175.4109 L233.5606,175.2774 L243.4394,175.558 L253.3182,175.6388 L263.197,176.1009 L273.0758,176.2147 L282.9545,176.2256 L292.8333,175.6595 L302.7121,175.9381 L312.5909,176.2563 L322.4697,174.3584 L332.3485,176.2246 L342.2273,174.9246 L352.1061,176.0317 L361.9848,174.6599 L371.8636,175.2286 L381.7424,176.3088 L391.6212,175.255 L401.5,175.32 " fill="#383838" style="stroke: #383838; stroke-width: 1.5;"/><path d="M401.5,175.32 L401.5934,175.32 L401.3159,178.32 L401.5859,181.32 L401.6776,184.32 L401.1829,187.32 L401.5,190.32 " fill="#383838" style="stroke: #383838; stroke-width: 1.5;"/><polygon fill="#383838" points="397.5,180.32,397.565,180.346,398.1718,182.2687,399.1598,184.3439,400.0237,186.3694,400.4792,188.2316,401.5,190.32,401.4759,190.3103,402.168,188.2672,402.9813,186.2725,403.8789,184.3115,404.486,182.2344,405.5,180.32,405.6305,180.4505,404.5514,180.9714,403.8534,181.8733,403.2018,182.8218,402.2798,183.4997,401.5,184.32,401.5161,184.336,400.6925,183.5124,399.9421,182.762,399.1564,181.9763,398.438,181.258,397.5,180.32" style="stroke: #383838; stroke-width: 1.0;"/><path d="M401.5,354.3762 L401.5934,354.3762 L401.3159,355.3762 L401.5859,356.3762 L401.6776,357.3762 L401.1829,358.3762 L401.5,359.3762 " fill="#383838" style="stroke: #383838; stroke-width: 1.5;"/><path d="M401.5,359.3762 L401.5,359.6565 L391.6212,358.8238 L381.7424,359.6339 L371.8636,359.9091 L361.9848,358.425 L352.1061,359.2726 L342.2273,358.8076 L332.3485,358.8649 L322.4697,359.2853 L312.5909,358.4544 L302.7121,360.1144 L292.8333,358.5358 L282.9545,359.1125 L273.0758,359.9521 L263.197,359.2618 L253.3182,359.4672 L243.4394,359.3336 L233.5606,359.6142 L223.6818,359.6951 L213.803,360.1571 L203.9242,360.271 L194.0455,360.2819 L184.1667,359.7157 L174.2879,359.9943 L164.4091,360.3125 L154.5303,358.4146 L144.6515,360.2809 L134.7727,358.9809 L124.8939,360.088 L115.0152,358.7162 L105.1364,359.2849 L95.2576,360.365 L85.3788,359.3112 L75.5,359.3762 " fill="#383838" style="stroke: #383838; stroke-width: 1.5;"/><path d="M75.5,359.3762 L75.5934,359.3762 L75.3159,362.3762 L75.5859,365.3762 L75.6776,368.3762 L75.1829,371.3762 L75.5,374.3762 " fill="#383838" style="stroke: #383838; stroke-width: 1.5;"/><polygon fill="#383838" points="71.5,364.3762,71.565,364.4022,72.1718,366.3249,73.1598,368.4001,74.0237,370.4257,74.4792,372.2879,75.5,374.3762,75.4759,374.3666,76.168,372.3234,76.9813,370.3287,77.8789,368.3678,78.486,366.2906,79.5,364.3762,79.6305,364.5067,78.5514,365.0277,77.8534,365.9296,77.2018,366.878,76.2798,367.556,75.5,368.3762,75.5161,368.3923,74.6925,367.5687,73.9421,366.8183,73.1564,366.0326,72.438,365.3143,71.5,364.3762" style="stroke: #383838; stroke-width: 1.0;"/><path d="M75.5,398.3762 L75.5934,398.3762 L75.3159,403.0234 L75.5859,407.6706 L75.6776,412.3178 L75.1829,416.965 L75.5,421.6122 " fill="#383838" style="stroke: #383838; stroke-width: 1.5;"/><path d="M75.5,421.6122 L75.5,421.8924 L85.3788,421.0597 L95.2576,421.8699 L105.1364,422.1451 L115.0152,420.661 L124.8939,421.5085 L134.7727,421.0435 L144.6515,421.1008 L154.5303,421.5213 L164.4091,420.6903 L174.2879,422.3503 L184.1667,420.7718 L194.0455,421.3485 L203.9242,422.1881 L213.803,421.4978 L223.6818,421.7031 L233.5606,421.5696 L243.4394,421.8502 L253.3182,421.931 L263.197,422.3931 L273.0758,422.5069 L282.9545,422.5178 L292.8333,421.9517 L302.7121,422.2303 L312.5909,422.5485 L322.4697,420.6506 L332.3485,422.5168 L342.2273,421.2168 L352.1061,422.3239 L361.9848,420.9521 L371.8636,421.5208 L381.7424,422.601 L391.6212,421.5472 L401.5,421.6122 " fill="#383838" style="stroke: #383838; stroke-width: 1.5;"/><path d="M401.5,421.6122 L401.5934,421.6122 L401.3159,424.6122 L401.5859,427.6122 L401.6776,430.6122 L401.1829,433.6122 L401.5,436.6122 " fill="#383838" style="stroke: #383838; stroke-width: 1.5;"/><polygon fill="#383838" points="397.5,426.6122,397.565,426.6382,398.1718,428.5609,399.1598,430.6361,400.0237,432.6616,400.4792,434.5238,401.5,436.6122,401.4759,436.6025,402.168,434.5594,402.9813,432.5647,403.8789,430.6037,404.486,428.5266,405.5,426.6122,405.6305,426.7427,404.5514,427.2636,403.8534,428.1655,403.2018,429.114,402.2798,429.7919,401.5,430.6122,401.5161,430.6282,400.6925,429.8046,399.9421,429.0542,399.1564,428.2685,398.438,427.5502,397.5,426.6122" style="stroke: #383838; stroke-width: 1.0;"/><text fill="#000000" font-family="FG Virgil" font-size="11" lengthAdjust="spacingAndGlyphs" textLength="48" x="79.5" y="415.1122">[finished]</text><text fill="#000000" font-family="FG Virgil" font-size="18" lengthAdjust="spacingAndGlyphs" textLength="83" x="113" y="36.2918">Customer</text><text fill="#000000" font-family="FG Virgil" font-size="18" lengthAdjust="spacingAndGlyphs" textLength="37" x="382.5" y="36.2918">Dev</text><text fill="#000000" font-family="FG Virgil" font-size="18" lengthAdjust="spacingAndGlyphs" textLength="26" x="523" y="36.2918">QM</text><path d="M10,16.276 L10.2802,16.276 L9.4476,26.329 L10.2577,36.3821 L10.5329,46.4352 L9.0488,56.4883 L9.8964,66.5414 L9.4313,76.5945 L9.4887,86.6476 L9.9091,96.7007 L9.0782,106.7538 L10.7382,116.8069 L9.1596,126.86 L9.7363,136.9131 L10.5759,146.9662 L9.8856,157.0193 L10.091,167.0724 L9.9574,177.1255 L10.238,187.1786 L10.3188,197.2317 L10.7809,207.2848 L10.8947,217.3379 L10.9057,227.391 L10.3395,237.4441 L10.6181,247.4971 L10.9363,257.5502 L9.0384,267.6033 L10.9047,277.6564 L9.6047,287.7095 L10.7117,297.7626 L9.34,307.8157 L9.9087,317.8688 L10.9888,327.9219 L9.935,337.975 L10.1404,348.0281 L10.4515,358.0812 L10.555,368.1343 L9.9948,378.1874 L10.383,388.2405 L9.2368,398.2936 L10.3792,408.3467 L10.7309,418.3998 L10.5927,428.4529 L10.8174,438.506 L9.3559,448.5591 L10,458.6122 " fill="none" style="stroke: #000000; stroke-width: 2.0;"/><path d="M219,16.276 L219.2802,16.276 L218.4476,26.329 L219.2577,36.3821 L219.5329,46.4352 L218.0488,56.4883 L218.8964,66.5414 L218.4313,76.5945 L218.4887,86.6476 L218.9091,96.7007 L218.0782,106.7538 L219.7382,116.8069 L218.1596,126.86 L218.7363,136.9131 L219.5759,146.9662 L218.8856,157.0193 L219.091,167.0724 L218.9574,177.1255 L219.238,187.1786 L219.3188,197.2317 L219.7809,207.2848 L219.8947,217.3379 L219.9057,227.391 L219.3395,237.4441 L219.6181,247.4971 L219.9363,257.5502 L218.0384,267.6033 L219.9047,277.6564 L218.6047,287.7095 L219.7117,297.7626 L218.34,307.8157 L218.9087,317.8688 L219.9888,327.9219 L218.935,337.975 L219.1404,348.0281 L219.4515,358.0812 L219.555,368.1343 L218.9948,378.1874 L219.383,388.2405 L218.2368,398.2936 L219.3792,408.3467 L219.7309,418.3998 L219.5927,428.4529 L219.8174,438.506 L218.3559,448.5591 L219,458.6122 " fill="none" style="stroke: #000000; stroke-width: 2.0;"/><path d="M502.5,16.276 L502.7802,16.276 L501.9476,26.329 L502.7577,36.3821 L503.0329,46.4352 L501.5488,56.4883 L502.3964,66.5414 L501.9313,76.5945 L501.9887,86.6476 L502.4091,96.7007 L501.5782,106.7538 L503.2382,116.8069 L501.6596,126.86 L502.2363,136.9131 L503.0759,146.9662 L502.3856,157.0193 L502.591,167.0724 L502.4574,177.1255 L502.738,187.1786 L502.8188,197.2317 L503.2809,207.2848 L503.3947,217.3379 L503.4057,227.391 L502.8395,237.4441 L503.1181,247.4971 L503.4363,257.5502 L501.5384,267.6033 L503.4047,277.6564 L502.1047,287.7095 L503.2117,297.7626 L501.84,307.8157 L502.4087,317.8688 L503.4888,327.9219 L502.435,337.975 L502.6404,348.0281 L502.9515,358.0812 L503.055,368.1343 L502.4948,378.1874 L502.883,388.2405 L501.7368,398.2936 L502.8792,408.3467 L503.2309,418.3998 L503.0927,428.4529 L503.3174,438.506 L501.8559,448.5591 L502.5,458.6122 " fill="none" style="stroke: #000000; stroke-width: 2.0;"/><path d="M574.5,16.276 L574.7802,16.276 L573.9476,26.329 L574.7577,36.3821 L575.0329,46.4352 L573.5488,56.4883 L574.3964,66.5414 L573.9313,76.5945 L573.9887,86.6476 L574.4091,96.7007 L573.5782,106.7538 L575.2382,116.8069 L573.6596,126.86 L574.2363,136.9131 L575.0759,146.9662 L574.3856,157.0193 L574.591,167.0724 L574.4574,177.1255 L574.738,187.1786 L574.8188,197.2317 L575.2809,207.2848 L575.3947,217.3379 L575.4057,227.391 L574.8395,237.4441 L575.1181,247.4971 L575.4363,257.5502 L573.5384,267.6033 L575.4047,277.6564 L574.1047,287.7095 L575.2117,297.7626 L573.84,307.8157 L574.4087,317.8688 L575.4888,327.9219 L574.435,337.975 L574.6404,348.0281 L574.9515,358.0812 L575.055,368.1343 L574.4948,378.1874 L574.883,388.2405 L573.7368,398.2936 L574.8792,408.3467 L575.2309,418.3998 L575.0927,428.4529 L575.3174,438.506 L573.8559,448.5591 L574.5,458.6122 " fill="none" style="stroke: #000000; stroke-width: 2.0;"/><!--
@startuml
skinparam DefaultFontName "FG Virgil"
skinparam handwritten true
skinparam monochrome true
skinparam packageStyle rect
skinparam shadowing false


  |Customer|
  |Dev|
  |QM|
  |Customer|
  start
  repeat
  :add Requirment;
  |Dev|
  fork
    :ask Customer>
	Detach
	:get response<
  fork again 
  :test;
  fork again
  :deploy;
  end
  fork again 
  |QM|
    :Review;
  end fork
   |Customer|
     repeat while () is ([open tasks])
->[finished];
|Dev|
stop 
@enduml

PlantUML version 1.2019.09(Mon Aug 26 18:19:51 CEST 2019)
(GPL source distribution)
Java Runtime: Java(TM) SE Runtime Environment
JVM: Java HotSpot(TM) 64-Bit Server VM
Java Version: 11.0.4+10-LTS
Operating System: Windows 10
OS Version: 10.0
Default Encoding: Cp1252
Language: de
Country: DE
--></g></svg>