<?xml version="1.0" encoding="UTF-8" standalone="no"?><svg xmlns="http://www.w3.org/2000/svg" xmlns:xlink="http://www.w3.org/1999/xlink" contentScriptType="application/ecmascript" contentStyleType="text/css" height="470px" preserveAspectRatio="none" style="width:583px;height:470px;" version="1.1" viewBox="0 0 583 470" width="583px" zoomAndPan="magnify"><defs/><g><polygon fill="#F8F8F8" points="32.5,253.084,32.5,253.1541,39.1,252.9459,45.7,253.1484,52.3,253.2172,58.9,252.8462,65.5,253.084,65.4901,253.0601,67.2134,253.6849,68.9866,254.4304,70.7946,255.2597,72.4829,255.8,74.3388,256.7452,74.5093,256.8158,74.877,258.4326,75.7424,260.2555,76.6686,262.1036,77.2414,263.8053,78,265.584,78.0227,265.584,77.9894,268.2896,78.0595,270.9953,78.0797,273.7009,78.1952,276.4065,78,279.1122,78.2067,279.1978,77.477,280.9666,76.6139,282.6802,75.9461,284.4746,75.2873,286.2728,74.3388,287.951,74.2468,287.7289,72.6576,288.8922,70.7655,289.3241,69.1036,290.3121,67.2046,290.7275,65.5,291.6122,65.5,291.5893,58.9,291.8594,52.3,291.5959,45.7,291.6473,39.1,291.725,32.5,291.6122,32.5531,291.7403,30.7317,290.8787,29.0011,290.2361,27.1237,289.2392,25.4652,288.7708,23.6612,287.951,23.83,288.0209,23.0658,286.2399,22.3855,284.4936,21.3157,282.5861,20.5314,280.7967,20,279.1122,19.7929,279.1122,19.9804,276.4065,19.9345,273.7009,20.2271,270.9953,19.9418,268.2896,20,265.584,19.8944,265.5403,20.8025,263.8454,21.2591,261.9634,22.0368,260.2145,23.1288,258.5957,23.6612,256.7452,23.7167,256.8794,25.5226,256.2391,27.1557,255.1816,29.0052,254.6468,30.8075,253.9981,32.5,253.084" style="stroke: #383838; stroke-width: 1.5;"/><text fill="#000000" font-family="FG Virgil" font-size="12" lengthAdjust="spacingAndGlyphs" textLength="38" x="30" y="276.4281">Review</text><polygon fill="#000000" points="90.5,190.32,90.5,190.5301,100.66,189.9056,110.82,190.5132,120.98,190.7196,131.14,189.6066,141.3,190.2422,151.46,189.8935,161.62,189.9365,171.78,190.2518,181.94,189.6286,192.1,190.8736,202.26,189.6897,212.42,190.1222,222.58,190.7519,232.74,190.2342,242.9,190.3882,253.06,190.288,263.22,190.4985,273.38,190.5591,283.54,190.9056,293.7,190.991,303.86,190.9992,314.02,190.5746,324.18,190.7835,334.34,191.0222,344.5,190.32,344.408,190.0979,344.9401,190.6754,345.1693,190.5215,345.6288,190.9237,345.8511,190.7533,346.2678,191.0522,346.2467,191.0435,346.6426,191.5003,346.5457,191.7531,346.7395,192.1263,346.9578,192.5096,347,192.82,347.1387,192.82,346.9987,193.02,347.0957,193.22,346.8092,193.42,347.0948,193.62,347,193.82,347.1688,193.8899,346.9905,194.2302,346.8959,194.6053,346.4119,194.819,346.2134,195.151,346.2678,195.5877,346.1885,195.3964,345.9067,195.716,345.5356,195.8201,345.294,196.2369,344.8313,196.1197,344.5,196.32,344.5,195.9769,334.34,196.5482,324.18,195.6531,314.02,195.8008,303.86,196.9689,293.7,196.7556,283.54,197.0544,273.38,195.9982,263.22,196.6392,253.06,196.9104,242.9,195.8475,232.74,196.2241,222.58,196.4459,212.42,196.9717,202.26,196.3158,192.1,196.7825,181.94,195.7662,171.78,195.6427,161.62,196.8236,151.46,195.603,141.3,196.8289,131.14,196.5266,120.98,196.052,110.82,195.9662,100.66,196.7787,90.5,196.32,90.4618,196.2278,90.2219,196.3558,89.7224,195.8568,89.5181,196.0708,89.1476,195.8833,88.7322,195.5877,88.8077,195.619,88.6003,195.2402,88.6631,194.9733,88.4819,194.6053,88.1986,194.1951,88,193.82,88.0894,193.82,87.9566,193.62,88.2388,193.42,88.0516,193.22,88.0575,193.02,88,192.82,87.8127,192.7424,88.0217,192.4147,88.4563,192.1806,88.5717,191.8141,88.5726,191.4003,88.7322,191.0522,88.6911,190.953,89.0579,190.8383,89.3518,190.548,89.8458,190.7406,90.2408,190.6942,90.5,190.32" style="stroke: #000000; stroke-width: 1.0;"/><polygon fill="#F8F8F8" points="100,216.32,100,216.5301,110.3,215.9056,120.6,216.5132,130.9,216.7196,141.2,215.6066,151.5,216.2422,161.8,215.8935,172.1,215.9365,182.4,216.2518,192.7,215.6286,203,216.32,203.1638,216.405,204.8135,220.076,206.9415,223.9952,209.1278,227.9447,210.9746,231.718,213,235.584,213.0202,235.5945,210.9905,239.4319,209.0528,243.3171,207.0707,247.1792,205.1733,251.0852,203,254.8481,203,255.5191,192.7,255.5273,182.4,255.1027,172.1,255.3117,161.8,255.5503,151.5,254.1269,141.2,255.5266,130.9,254.5516,120.6,255.3819,110.3,254.3531,100,254.8481,99.9772,254.8481,100.2472,247.1425,99.9838,239.4368,100.0351,231.7312,100.1129,224.0256,100,216.32" style="stroke: #383838; stroke-width: 1.5;"/><text fill="#000000" font-family="FG Virgil" font-size="12" lengthAdjust="spacingAndGlyphs" textLength="83" x="110" y="239.664">ask Customer</text><polygon fill="#F8F8F8" points="103,289.8481,103,290.0583,112.7273,289.4338,122.4545,290.0414,132.1818,290.2478,141.9091,289.1347,151.6364,289.7704,161.3636,289.4216,171.0909,289.4646,180.8182,289.7799,190.5455,289.1567,200.2727,290.4017,210,289.8481,209.8135,289.7513,207.9415,293.6705,206.1278,297.62,203.9746,301.3934,202.0202,305.2698,200,309.1122,199.9905,309.1072,202.0528,312.9924,204.0707,316.8545,206.1733,320.7605,208.1985,324.6265,210,328.3762,210,329.0555,200.2727,328.6308,190.5455,328.8398,180.8182,329.0784,171.0909,327.655,161.3636,329.0547,151.6364,328.0797,141.9091,328.91,132.1818,327.8812,122.4545,328.3077,112.7273,329.1178,103,328.3762,102.9838,328.3762,103.0351,320.6706,103.1129,312.965,103.1387,305.2593,102.9987,297.5537,103,289.8481" style="stroke: #383838; stroke-width: 1.5;"/><text fill="#000000" font-family="FG Virgil" font-size="12" lengthAdjust="spacingAndGlyphs" textLength="77" x="113" y="313.1922">get response</text><polygon fill="#F8F8F8" points="235.5,253.084,235.5,253.1541,239.7,252.9459,243.9,253.1484,248.1,253.2172,252.3,252.8462,256.5,253.084,256.4901,253.0601,258.2134,253.6849,259.9866,254.4304,261.7946,255.2597,263.4829,255.8,265.3388,256.7452,265.5093,256.8158,265.877,258.4326,266.7424,260.2555,267.6686,262.1036,268.2414,263.8053,269,265.584,269.0227,265.584,268.9894,268.2896,269.0595,270.9953,269.0797,273.7009,269.1952,276.4065,269,279.1122,269.2067,279.1978,268.477,280.9666,267.6139,282.6802,266.9461,284.4746,266.2873,286.2728,265.3388,287.951,265.2468,287.7289,263.6576,288.8922,261.7655,289.3241,260.1036,290.3121,258.2046,290.7275,256.5,291.6122,256.5,291.5893,252.3,291.8594,248.1,291.5959,243.9,291.6473,239.7,291.725,235.5,291.6122,235.5531,291.7403,233.7317,290.8787,232.0011,290.2361,230.1237,289.2392,228.4652,288.7708,226.6612,287.951,226.83,288.0209,226.0658,286.2399,225.3855,284.4936,224.3157,282.5861,223.5314,280.7967,223,279.1122,222.7929,279.1122,222.9804,276.4065,222.9345,273.7009,223.2271,270.9953,222.9418,268.2896,223,265.584,222.8944,265.5403,223.8025,263.8454,224.2591,261.9634,225.0368,260.2145,226.1288,258.5957,226.6612,256.7452,226.7167,256.8794,228.5226,256.2391,230.1557,255.1816,232.0052,254.6468,233.8075,253.9981,235.5,253.084" style="stroke: #383838; stroke-width: 1.5;"/><text fill="#000000" font-family="FG Virgil" font-size="12" lengthAdjust="spacingAndGlyphs" textLength="26" x="233" y="276.4281">test</text><polygon fill="#F8F8F8" points="291.5,225.584,291.5,225.6541,297.7,225.4459,303.9,225.6484,310.1,225.7172,316.3,225.3462,322.5,225.584,322.4901,225.5601,324.2134,226.1849,325.9866,226.9304,327.7946,227.7597,329.4829,228.3,331.3388,229.2452,331.5093,229.3158,331.877,230.9326,332.7424,232.7555,333.6686,234.6036,334.2414,236.3053,335,238.084,335.0227,238.084,334.9894,240.7896,335.0595,243.4953,335.0797,246.2009,335.1952,248.9065,335,251.6122,335.2067,251.6978,334.477,253.4666,333.6139,255.1802,332.9461,256.9746,332.2873,258.7728,331.3388,260.451,331.2468,260.2289,329.6576,261.3922,327.7655,261.8241,326.1036,262.8121,324.2046,263.2275,322.5,264.1122,322.5,264.0893,316.3,264.3594,310.1,264.0959,303.9,264.1473,297.7,264.225,291.5,264.1122,291.5531,264.2403,289.7317,263.3787,288.0011,262.7361,286.1237,261.7392,284.4652,261.2708,282.6612,260.451,282.83,260.5209,282.0658,258.7399,281.3855,256.9936,280.3157,255.0861,279.5314,253.2967,279,251.6122,278.7929,251.6122,278.9804,248.9065,278.9345,246.2009,279.2271,243.4953,278.9418,240.7896,279,238.084,278.8944,238.0403,279.8025,236.3454,280.2591,234.4634,281.0368,232.7145,282.1288,231.0957,282.6612,229.2452,282.7167,229.3794,284.5226,228.7391,286.1557,227.6816,288.0052,227.1468,289.8075,226.4981,291.5,225.584" style="stroke: #383838; stroke-width: 1.5;"/><text fill="#000000" font-family="FG Virgil" font-size="12" lengthAdjust="spacingAndGlyphs" textLength="36" x="289" y="248.9281">deploy</text><polygon fill="#FFFFFF" points="317.0552,311.5445,315.5894,313.5474,313.8556,316.481,311.376,318.458,308.7703,319.5391,306.6927,319.6329,304.0224,318.2808,301.5029,317.3975,299.5905,315.6041,298.5873,313.551,297.9924,311.9163,297.4096,309.781,296.4636,307.9435,297.1906,306.1494,297.8275,304.1842,300.2175,302.6299,301.8991,300.6131,303.9804,299.9435,306.4547,299.3667,309.6276,299.7094,311.3655,300.529,313.3861,300.9005,315.8429,303.4176,316.6993,306.0748,317.0714,307.8879,316.65,310.8757" style="stroke: #000000; stroke-width: 1.5;"/><path d="M300.8128,302.925 L300.8789,302.991 L303.1575,305.2696 L305.8233,307.9355 L308.363,310.4752 L310.4881,312.6003 L313.1872,315.2993 " fill="none" style="stroke: #000000; stroke-width: 2.5;"/><path d="M313.1872,302.925 L313.2532,302.991 L310.5821,305.2696 L308.2982,307.9355 L305.8882,310.4752 L303.0635,312.6003 L300.8128,315.2993 " fill="none" style="stroke: #000000; stroke-width: 2.5;"/><polygon fill="#000000" points="90.5,348.3762,90.5,348.5864,100.66,347.9619,110.82,348.5695,120.98,348.7759,131.14,347.6628,141.3,348.2985,151.46,347.9497,161.62,347.9927,171.78,348.3081,181.94,347.6848,192.1,348.9299,202.26,347.7459,212.42,348.1784,222.58,348.8082,232.74,348.2904,242.9,348.4445,253.06,348.3443,263.22,348.5547,273.38,348.6153,283.54,348.9619,293.7,349.0473,303.86,349.0555,314.02,348.6308,324.18,348.8398,334.34,349.0784,344.5,348.3762,344.408,348.1541,344.9401,348.7316,345.1693,348.5778,345.6288,348.9799,345.8511,348.8096,346.2678,349.1084,346.2467,349.0997,346.6426,349.5566,346.5457,349.8093,346.7395,350.1825,346.9578,350.5659,347,350.8762,347.1387,350.8762,346.9987,351.0762,347.0957,351.2762,346.8092,351.4762,347.0948,351.6762,347,351.8762,347.1688,351.9461,346.9905,352.2865,346.8959,352.6615,346.4119,352.8753,346.2134,353.2072,346.2678,353.644,346.1885,353.4526,345.9067,353.7723,345.5356,353.8764,345.294,354.2932,344.8313,354.176,344.5,354.3762,344.5,354.0332,334.34,354.6045,324.18,353.7094,314.02,353.8571,303.86,355.0252,293.7,354.8119,283.54,355.1107,273.38,354.0544,263.22,354.6954,253.06,354.9666,242.9,353.9038,232.74,354.2804,222.58,354.5022,212.42,355.028,202.26,354.372,192.1,354.8388,181.94,353.8224,171.78,353.699,161.62,354.8798,151.46,353.6593,141.3,354.8852,131.14,354.5828,120.98,354.1083,110.82,354.0224,100.66,354.835,90.5,354.3762,90.4618,354.284,90.2219,354.412,89.7224,353.9131,89.5181,354.127,89.1476,353.9396,88.7322,353.644,88.8077,353.6752,88.6003,353.2965,88.6631,353.0296,88.4819,352.6616,88.1986,352.2514,88,351.8762,88.0894,351.8762,87.9566,351.6762,88.2388,351.4762,88.0516,351.2762,88.0575,351.0762,88,350.8762,87.8127,350.7986,88.0217,350.471,88.4563,350.2368,88.5717,349.8704,88.5726,349.4565,88.7322,349.1084,88.6911,349.0092,89.0579,348.8946,89.3518,348.6042,89.8458,348.7968,90.2408,348.7504,90.5,348.3762" style="stroke: #000000; stroke-width: 1.0;"/><polygon fill="#FFFFFF" points="198.5608,450.2878,196.9484,452.4909,195.0412,455.7179,192.3136,457.8926,189.4474,459.0818,187.162,459.185,184.2247,457.6977,181.4532,456.7261,179.3495,454.7533,178.2461,452.4949,177.5917,450.6967,176.9506,448.3479,175.91,446.3266,176.7096,444.3532,177.4102,442.1914,180.0393,440.4816,181.889,438.2633,184.1784,437.5266,186.9001,436.8922,190.3904,437.2691,192.3021,438.1707,194.5247,438.5793,197.2272,441.3481,198.1693,444.2711,198.5786,446.2655,198.115,449.552" style="stroke: #000000; stroke-width: 1.0;"/><polygon fill="#000000" points="193.5331,449.0716,192.6536,450.2733,191.6134,452.0334,190.1256,453.2196,188.5622,453.8683,187.3156,453.9246,185.7135,453.1134,184.2017,452.5834,183.0543,451.5073,182.4524,450.2755,182.0955,449.2946,181.7458,448.0134,181.1782,446.911,181.6143,445.8345,181.9965,444.6554,183.4305,443.7228,184.4394,442.5128,185.6882,442.1109,187.1728,441.7649,189.0766,441.9705,190.1193,442.4623,191.3317,442.6852,192.8057,444.1954,193.3196,445.7898,193.5429,446.8776,193.29,448.6703" style="stroke: #7F7F7F; stroke-width: 1.0;"/><polygon fill="#000000" points="422.5552,60.2242,421.0894,62.2271,419.3556,65.1606,416.876,67.1376,414.2703,68.2187,412.1927,68.3126,409.5224,66.9605,407.0029,66.0772,405.0905,64.2838,404.0873,62.2307,403.4924,60.5959,402.9096,58.4606,401.9636,56.6232,402.6906,54.8291,403.3275,52.8638,405.7175,51.3095,407.3991,49.2928,409.4804,48.6231,411.9547,48.0464,415.1276,48.3891,416.8655,49.2087,418.8861,49.5802,421.3429,52.0973,422.1993,54.7545,422.5714,56.5676,422.15,59.5553" style="stroke: none; stroke-width: 1.0;"/><polygon fill="#F8F8F8" points="369.5,131.7918,369.5,132.002,379.0556,131.3775,388.6111,131.9851,398.1667,132.1915,407.7222,131.0784,417.2778,131.7141,426.8333,131.3653,436.3889,131.4083,445.9444,131.7237,455.5,131.7918,455.4118,131.5789,457.3384,132.6946,458.9551,133.0622,460.7781,133.9276,462.6262,134.8538,464.3388,135.453,464.3124,135.442,465.0921,137.2295,465.7935,138.9845,466.5905,140.7791,467.3414,142.5546,468,144.2918,468.1952,144.2918,468.2237,146.9975,468.2264,149.7031,468.0849,152.4087,468.1545,155.1143,468,157.82,468.2163,157.9095,467.0457,159.4957,466.7445,161.442,465.712,163.0854,465.2355,164.9591,464.3388,166.6588,464.2757,166.5063,462.5623,167.3699,460.8979,168.3516,459.0293,168.8405,457.2812,169.6202,455.5,170.32,455.5,170.6586,445.9444,170.7362,436.3889,170.316,426.8333,170.6072,417.2778,169.7475,407.7222,170.6043,398.1667,170.8682,388.6111,170.7645,379.0556,170.933,369.5,170.32,369.4384,170.1712,367.649,169.3869,365.8852,168.6641,364.1892,168.1051,362.4039,167.3305,360.6612,166.6588,360.871,166.7457,359.8751,164.8687,359.0911,163.0795,358.5348,161.3846,357.5269,159.5027,357,157.82,356.827,157.82,357.2163,155.1143,357.1452,152.4087,357.2448,149.7031,356.8927,146.9975,357,144.2918,357.0983,144.3325,357.9141,142.5994,358.319,140.696,359.1672,138.9763,359.9677,137.2368,360.6612,135.453,360.7443,135.6537,362.4284,134.7195,364.2557,134.131,365.8938,133.0857,367.6458,132.3155,369.5,131.7918" style="stroke: #383838; stroke-width: 1.5;"/><text fill="#000000" font-family="FG Virgil" font-size="12" lengthAdjust="spacingAndGlyphs" textLength="91" x="367" y="155.1359">add Requirment</text><polygon fill="#F8F8F8" points="412.5,87.7918,412.5495,87.8414,414.8023,90.0942,417.3456,92.6374,419.7942,95.086,421.9319,97.2237,424.5,99.7918,424.4817,99.7735,421.9995,102.0913,419.6096,104.5014,417.2839,106.9758,414.737,109.2289,412.5,111.7918,412.6305,111.9223,409.9514,109.2433,407.6534,106.9452,405.4018,104.6936,402.8798,102.1716,400.5,99.7918,400.5161,99.8079,402.8925,97.3843,405.3421,95.0339,407.7564,92.6482,410.238,90.3299,412.5,87.7918" style="stroke: #383838; stroke-width: 1.5;"/><polygon fill="#F8F8F8" points="412.5,374.3762,412.5495,374.4258,414.8023,376.6786,417.3456,379.2218,419.7942,381.6704,421.9319,383.8081,424.5,386.3762,424.4817,386.3579,421.9995,388.6757,419.6096,391.0858,417.2839,393.5602,414.737,395.8133,412.5,398.3762,412.6305,398.5067,409.9514,395.8277,407.6534,393.5296,405.4018,391.278,402.8798,388.756,400.5,386.3762,400.5161,386.3923,402.8925,383.9687,405.3421,381.6183,407.7564,379.2326,410.238,376.9143,412.5,374.3762" style="stroke: #383838; stroke-width: 1.5;"/><text fill="#000000" font-family="FG Virgil" font-size="11" lengthAdjust="spacingAndGlyphs" textLength="70" x="424.5" y="381.6243">[open tasks]</text><path d="M307,264.1122 L307.0934,264.1122 L306.8159,271.1122 L307.0859,278.1122 L307.1776,285.1122 L306.6829,292.1122 L307,299.1122 " fill="#383838" style="stroke: #383838; stroke-width: 1.5;"/><polygon fill="#383838" points="303,289.1122,303.065,289.1382,303.6718,291.0609,304.6598,293.1361,305.5237,295.1616,305.9792,297.0238,307,299.1122,306.9759,299.1025,307.668,297.0594,308.4813,295.0647,309.3789,293.1037,309.986,291.0266,311,289.1122,311.1305,289.2426,310.0514,289.7636,309.3534,290.6655,308.7018,291.614,307.7798,292.2919,307,293.1122,307.0161,293.1282,306.1925,292.3046,305.4421,291.5542,304.6564,290.7685,303.938,290.0502,303,289.1122" style="stroke: #383838; stroke-width: 1.0;"/><path d="M151.5,196.32 L151.5934,196.32 L151.3159,200.32 L151.5859,204.32 L151.6776,208.32 L151.1829,212.32 L151.5,216.32 " fill="#383838" style="stroke: #383838; stroke-width: 1.5;"/><polygon fill="#383838" points="147.5,206.32,147.565,206.346,148.1718,208.2687,149.1598,210.3439,150.0237,212.3694,150.4792,214.2316,151.5,216.32,151.4759,216.3103,152.168,214.2672,152.9813,212.2725,153.8789,210.3115,154.486,208.2344,155.5,206.32,155.6305,206.4505,154.5514,206.9714,153.8534,207.8733,153.2018,208.8218,152.2798,209.4997,151.5,210.32,151.5161,210.336,150.6925,209.5124,149.9421,208.762,149.1564,207.9763,148.438,207.258,147.5,206.32" style="stroke: #383838; stroke-width: 1.0;"/><path d="M246,196.32 L246.2802,196.32 L245.4476,205.7806 L246.2577,215.2413 L246.5329,224.702 L245.0488,234.1627 L245.8964,243.6233 L246,253.084 " fill="#383838" style="stroke: #383838; stroke-width: 1.5;"/><polygon fill="#383838" points="242,243.084,242.065,243.11,242.6718,245.0327,243.6598,247.1079,244.5237,249.1335,244.9792,250.9957,246,253.084,245.9759,253.0744,246.668,251.0312,247.4813,249.0365,248.3789,247.0756,248.986,244.9984,250,243.084,250.1305,243.2145,249.0514,243.7355,248.3534,244.6374,247.7018,245.5858,246.7798,246.2638,246,247.084,246.0161,247.1001,245.1925,246.2765,244.4421,245.5261,243.6564,244.7404,242.938,244.0221,242,243.084" style="stroke: #383838; stroke-width: 1.0;"/><path d="M307,196.32 L307.0934,196.32 L306.8159,202.1728 L307.0859,208.0256 L307.1776,213.8784 L306.6829,219.7312 L307,225.584 " fill="#383838" style="stroke: #383838; stroke-width: 1.5;"/><polygon fill="#383838" points="303,215.584,303.065,215.61,303.6718,217.5327,304.6598,219.6079,305.5237,221.6335,305.9792,223.4957,307,225.584,306.9759,225.5744,307.668,223.5312,308.4813,221.5365,309.3789,219.5756,309.986,217.4984,311,215.584,311.1305,215.7145,310.0514,216.2355,309.3534,217.1374,308.7018,218.0858,307.7798,218.7638,307,219.584,307.0161,219.6001,306.1925,218.7765,305.4421,218.0261,304.6564,217.2404,303.938,216.5221,303,215.584" style="stroke: #383838; stroke-width: 1.0;"/><path d="M151.5,328.3762 L151.5934,328.3762 L151.3159,332.3762 L151.5859,336.3762 L151.6776,340.3762 L151.1829,344.3762 L151.5,348.3762 " fill="#383838" style="stroke: #383838; stroke-width: 1.5;"/><polygon fill="#383838" points="147.5,338.3762,147.565,338.4022,148.1718,340.3249,149.1598,342.4001,150.0237,344.4257,150.4792,346.2879,151.5,348.3762,151.4759,348.3666,152.168,346.3234,152.9813,344.3287,153.8789,342.3678,154.486,340.2906,155.5,338.3762,155.6305,338.5067,154.5514,339.0277,153.8534,339.9296,153.2018,340.878,152.2798,341.556,151.5,342.3762,151.5161,342.3923,150.6925,341.5687,149.9421,340.8183,149.1564,340.0326,148.438,339.3143,147.5,338.3762" style="stroke: #383838; stroke-width: 1.0;"/><path d="M246,291.6122 L246.2802,291.6122 L245.4476,301.0728 L246.2577,310.5335 L246.5329,319.9942 L245.0488,329.4549 L245.8964,338.9155 L246,348.3762 " fill="#383838" style="stroke: #383838; stroke-width: 1.5;"/><polygon fill="#383838" points="242,338.3762,242.065,338.4022,242.6718,340.3249,243.6598,342.4001,244.5237,344.4257,244.9792,346.2879,246,348.3762,245.9759,348.3666,246.668,346.3234,247.4813,344.3287,248.3789,342.3678,248.986,340.2906,250,338.3762,250.1305,338.5067,249.0514,339.0277,248.3534,339.9296,247.7018,340.878,246.7798,341.556,246,342.3762,246.0161,342.3923,245.1925,341.5687,244.4421,340.8183,243.6564,340.0326,242.938,339.3143,242,338.3762" style="stroke: #383838; stroke-width: 1.0;"/><path d="M412.5,111.7918 L412.5934,111.7918 L412.3159,115.7918 L412.5859,119.7918 L412.6776,123.7918 L412.1829,127.7918 L412.5,131.7918 " fill="#383838" style="stroke: #383838; stroke-width: 1.5;"/><polygon fill="#383838" points="408.5,121.7918,408.565,121.8178,409.1718,123.7405,410.1598,125.8158,411.0237,127.8413,411.4792,129.7035,412.5,131.7918,412.4759,131.7822,413.168,129.739,413.9813,127.7444,414.8789,125.7834,415.486,123.7062,416.5,121.7918,416.6305,121.9223,415.5514,122.4433,414.8534,123.3452,414.2018,124.2936,413.2798,124.9716,412.5,125.7918,412.5161,125.8079,411.6925,124.9843,410.9421,124.2339,410.1564,123.4482,409.438,122.7299,408.5,121.7918" style="stroke: #383838; stroke-width: 1.0;"/><path d="M424.5,386.3762 L424.5,386.6565 L434.7083,385.8238 L444.9167,386.6339 L455.125,386.9091 L465.3333,385.425 L475.5417,386.2726 L485.75,385.8076 L495.9583,385.8649 L506.1667,386.2853 L516.375,385.4544 L526.5833,387.1144 L536.7917,385.5358 L547,386.3762 " fill="#383838" style="stroke: #383838; stroke-width: 1.5;"/><polygon fill="#383838" points="543,245.584,543.065,245.61,543.6718,243.5327,544.6598,241.6079,545.5237,239.6335,545.9792,237.4957,547,235.584,546.9759,235.5744,547.668,237.5312,548.4813,239.5365,549.3789,241.5756,549.986,243.4984,551,245.584,551.1305,245.7145,550.0514,244.6355,549.3534,243.9374,548.7018,243.2858,547.7798,242.3638,547,241.584,547.0161,241.6001,546.1925,242.3765,545.4421,243.2261,544.6564,244.0404,543.938,244.9221,543,245.584" style="stroke: #383838; stroke-width: 1.5;"/><path d="M547,99.7918 L547.2802,99.7918 L546.4476,109.674 L547.2577,119.5563 L547.5329,129.4385 L546.0488,139.3207 L546.8964,149.2029 L546.4313,159.0851 L546.4887,168.9674 L546.9091,178.8496 L546.0782,188.7318 L547.7382,198.614 L546.1596,208.4962 L546.7363,218.3785 L547.5759,228.2607 L546.8856,238.1429 L547.091,248.0251 L546.9574,257.9074 L547.238,267.7896 L547.3188,277.6718 L547.7809,287.554 L547.8947,297.4362 L547.9057,307.3185 L547.3395,317.2007 L547.6181,327.0829 L547.9363,336.9651 L546.0384,346.8473 L547.9047,356.7296 L546.6047,366.6118 L547.7117,376.494 L547,386.3762 " fill="#383838" style="stroke: #383838; stroke-width: 1.5;"/><path d="M547,99.7918 L547,100.0721 L536.7917,99.2394 L526.5833,100.0495 L516.375,100.3247 L506.1667,98.8406 L495.9583,99.6882 L485.75,99.2232 L475.5417,99.2805 L465.3333,99.701 L455.125,98.87 L444.9167,100.53 L434.7083,98.9515 L424.5,99.7918 " fill="#383838" style="stroke: #383838; stroke-width: 1.5;"/><polygon fill="#383838" points="434.5,95.7918,434.526,95.8569,432.4487,96.4636,430.5239,97.4516,428.5495,98.3155,426.4117,98.771,424.5,99.7918,424.4904,99.7678,426.4472,100.4598,428.4525,101.2731,430.4916,102.1707,432.4144,102.7779,434.5,103.7918,434.6305,103.9223,433.5514,102.8433,432.8534,102.1452,432.2018,101.4936,431.2798,100.5716,430.5,99.7918,430.5161,99.8079,431.2925,98.9843,432.1421,98.2339,432.9564,97.4482,433.838,96.7299,434.5,95.7918" style="stroke: #383838; stroke-width: 1.0;"/><path d="M412.5,67.7918 L412.5934,67.7918 L412.3159,71.7918 L412.5859,75.7918 L412.6776,79.7918 L412.1829,83.7918 L412.5,87.7918 " fill="#383838" style="stroke: #383838; stroke-width: 1.5;"/><polygon fill="#383838" points="408.5,77.7918,408.565,77.8178,409.1718,79.7405,410.1598,81.8158,411.0237,83.8413,411.4792,85.7035,412.5,87.7918,412.4759,87.7822,413.168,85.739,413.9813,83.7444,414.8789,81.7834,415.486,79.7062,416.5,77.7918,416.6305,77.9223,415.5514,78.4433,414.8534,79.3452,414.2018,80.2936,413.2798,80.9716,412.5,81.7918,412.5161,81.8079,411.6925,80.9843,410.9421,80.2339,410.1564,79.4482,409.438,78.7299,408.5,77.7918" style="stroke: #383838; stroke-width: 1.0;"/><path d="M95,196.32 L95.0934,196.32 L94.8159,197.12 L95.0859,197.92 L95.1776,198.72 L94.6829,199.52 L95,200.32 " fill="#383838" style="stroke: #383838; stroke-width: 1.5;"/><path d="M95,200.32 L95,200.6002 L85.8,199.7675 L76.6,200.5777 L67.4,200.8529 L58.2,199.3688 L49,200.32 " fill="#383838" style="stroke: #383838; stroke-width: 1.5;"/><path d="M49,200.32 L49.2802,200.32 L48.4476,210.8728 L49.2577,221.4256 L49.5329,231.9784 L48.0488,242.5312 L49,253.084 " fill="#383838" style="stroke: #383838; stroke-width: 1.5;"/><polygon fill="#383838" points="45,243.084,45.065,243.11,45.6718,245.0327,46.6598,247.1079,47.5237,249.1335,47.9792,250.9957,49,253.084,48.9759,253.0744,49.668,251.0312,50.4813,249.0365,51.3789,247.0756,51.986,244.9984,53,243.084,53.1305,243.2145,52.0514,243.7355,51.3534,244.6374,50.7018,245.5858,49.7798,246.2638,49,247.084,49.0161,247.1001,48.1925,246.2765,47.4421,245.5261,46.6564,244.7404,45.938,244.0221,45,243.084" style="stroke: #383838; stroke-width: 1.0;"/><path d="M49,291.6122 L49.0934,291.6122 L48.8159,300.165 L49.0859,308.7178 L49.1776,317.2706 L48.6829,325.8234 L49,334.3762 " fill="#383838" style="stroke: #383838; stroke-width: 1.5;"/><path d="M49,334.3762 L49,334.6565 L58.2,333.8238 L67.4,334.6339 L76.6,334.9091 L85.8,333.425 L95,334.3762 " fill="#383838" style="stroke: #383838; stroke-width: 1.5;"/><path d="M95,334.3762 L95.0934,334.3762 L94.8159,337.1762 L95.0859,339.9762 L95.1776,342.7762 L94.6829,345.5762 L95,348.3762 " fill="#383838" style="stroke: #383838; stroke-width: 1.5;"/><polygon fill="#383838" points="91,338.3762,91.065,338.4022,91.6718,340.3249,92.6598,342.4001,93.5237,344.4257,93.9792,346.2879,95,348.3762,94.9759,348.3666,95.668,346.3234,96.4813,344.3287,97.3789,342.3678,97.986,340.2906,99,338.3762,99.1305,338.5067,98.0514,339.0277,97.3534,339.9296,96.7018,340.878,95.7798,341.556,95,342.3762,95.0161,342.3923,94.1925,341.5687,93.4421,340.8183,92.6564,340.0326,91.938,339.3143,91,338.3762" style="stroke: #383838; stroke-width: 1.0;"/><path d="M412.5,170.32 L412.5934,170.32 L412.3159,171.32 L412.5859,172.32 L412.6776,173.32 L412.1829,174.32 L412.5,175.32 " fill="#383838" style="stroke: #383838; stroke-width: 1.5;"/><path d="M412.5,175.32 L412.5,175.6002 L402.7174,174.7675 L392.9348,175.5777 L383.1522,175.8529 L373.3696,174.3688 L363.587,175.2163 L353.8043,174.7513 L344.0217,174.8086 L334.2391,175.2291 L324.4565,174.3981 L314.6739,176.0581 L304.8913,174.4796 L295.1087,175.0563 L285.3261,175.8959 L275.5435,175.2056 L265.7609,175.4109 L255.9783,175.2774 L246.1957,175.558 L236.413,175.6388 L226.6304,176.1009 L216.8478,176.2147 L207.0652,176.2256 L197.2826,175.6595 L187.5,175.32 " fill="#383838" style="stroke: #383838; stroke-width: 1.5;"/><path d="M187.5,175.32 L187.5934,175.32 L187.3159,178.32 L187.5859,181.32 L187.6776,184.32 L187.1829,187.32 L187.5,190.32 " fill="#383838" style="stroke: #383838; stroke-width: 1.5;"/><polygon fill="#383838" points="183.5,180.32,183.565,180.346,184.1718,182.2687,185.1598,184.3439,186.0237,186.3694,186.4792,188.2316,187.5,190.32,187.4759,190.3103,188.168,188.2672,188.9813,186.2725,189.8789,184.3115,190.486,182.2344,191.5,180.32,191.6305,180.4505,190.5514,180.9714,189.8534,181.8733,189.2018,182.8218,188.2798,183.4997,187.5,184.32,187.5161,184.336,186.6925,183.5124,185.9421,182.762,185.1564,181.9763,184.438,181.258,183.5,180.32" style="stroke: #383838; stroke-width: 1.0;"/><path d="M187.5,354.3762 L187.5934,354.3762 L187.3159,355.3762 L187.5859,356.3762 L187.6776,357.3762 L187.1829,358.3762 L187.5,359.3762 " fill="#383838" style="stroke: #383838; stroke-width: 1.5;"/><path d="M187.5,359.3762 L187.5,359.6565 L197.2826,358.8238 L207.0652,359.6339 L216.8478,359.9091 L226.6304,358.425 L236.413,359.2726 L246.1957,358.8076 L255.9783,358.8649 L265.7609,359.2853 L275.5435,358.4544 L285.3261,360.1144 L295.1087,358.5358 L304.8913,359.1125 L314.6739,359.9521 L324.4565,359.2618 L334.2391,359.4672 L344.0217,359.3336 L353.8043,359.6142 L363.587,359.6951 L373.3696,360.1571 L383.1522,360.271 L392.9348,360.2819 L402.7174,359.7157 L412.5,359.3762 " fill="#383838" style="stroke: #383838; stroke-width: 1.5;"/><path d="M412.5,359.3762 L412.5934,359.3762 L412.3159,362.3762 L412.5859,365.3762 L412.6776,368.3762 L412.1829,371.3762 L412.5,374.3762 " fill="#383838" style="stroke: #383838; stroke-width: 1.5;"/><polygon fill="#383838" points="408.5,364.3762,408.565,364.4022,409.1718,366.3249,410.1598,368.4001,411.0237,370.4257,411.4792,372.2879,412.5,374.3762,412.4759,374.3666,413.168,372.3234,413.9813,370.3287,414.8789,368.3678,415.486,366.2906,416.5,364.3762,416.6305,364.5067,415.5514,365.0277,414.8534,365.9296,414.2018,366.878,413.2798,367.556,412.5,368.3762,412.5161,368.3923,411.6925,367.5687,410.9421,366.8183,410.1564,366.0326,409.438,365.3143,408.5,364.3762" style="stroke: #383838; stroke-width: 1.0;"/><path d="M412.5,398.3762 L412.5934,398.3762 L412.3159,403.0234 L412.5859,407.6706 L412.6776,412.3178 L412.1829,416.965 L412.5,421.6122 " fill="#383838" style="stroke: #383838; stroke-width: 1.5;"/><path d="M412.5,421.6122 L412.5,421.8924 L402.7174,421.0597 L392.9348,421.8699 L383.1522,422.1451 L373.3696,420.661 L363.587,421.5085 L353.8043,421.0435 L344.0217,421.1008 L334.2391,421.5213 L324.4565,420.6903 L314.6739,422.3503 L304.8913,420.7718 L295.1087,421.3485 L285.3261,422.1881 L275.5435,421.4978 L265.7609,421.7031 L255.9783,421.5696 L246.1957,421.8502 L236.413,421.931 L226.6304,422.3931 L216.8478,422.5069 L207.0652,422.5178 L197.2826,421.9517 L187.5,421.6122 " fill="#383838" style="stroke: #383838; stroke-width: 1.5;"/><path d="M187.5,421.6122 L187.5934,421.6122 L187.3159,424.6122 L187.5859,427.6122 L187.6776,430.6122 L187.1829,433.6122 L187.5,436.6122 " fill="#383838" style="stroke: #383838; stroke-width: 1.5;"/><polygon fill="#383838" points="183.5,426.6122,183.565,426.6382,184.1718,428.5609,185.1598,430.6361,186.0237,432.6616,186.4792,434.5238,187.5,436.6122,187.4759,436.6025,188.168,434.5594,188.9813,432.5647,189.8789,430.6037,190.486,428.5266,191.5,426.6122,191.6305,426.7427,190.5514,427.2636,189.8534,428.1655,189.2018,429.114,188.2798,429.7919,187.5,430.6122,187.5161,430.6282,186.6925,429.8046,185.9421,429.0542,185.1564,428.2685,184.438,427.5502,183.5,426.6122" style="stroke: #383838; stroke-width: 1.0;"/><text fill="#000000" font-family="FG Virgil" font-size="11" lengthAdjust="spacingAndGlyphs" textLength="48" x="416.5" y="415.1122">[finished]</text><text fill="#000000" font-family="FG Virgil" font-size="18" lengthAdjust="spacingAndGlyphs" textLength="26" x="35.5" y="36.2918">QM</text><text fill="#000000" font-family="FG Virgil" font-size="18" lengthAdjust="spacingAndGlyphs" textLength="37" x="168.5" y="36.2918">Dev</text><text fill="#000000" font-family="FG Virgil" font-size="18" lengthAdjust="spacingAndGlyphs" textLength="83" x="450" y="36.2918">Customer</text><path d="M10,16.276 L10.2802,16.276 L9.4476,26.329 L10.2577,36.3821 L10.5329,46.4352 L9.0488,56.4883 L9.8964,66.5414 L9.4313,76.5945 L9.4887,86.6476 L9.9091,96.7007 L9.0782,106.7538 L10.7382,116.8069 L9.1596,126.86 L9.7363,136.9131 L10.5759,146.9662 L9.8856,157.0193 L10.091,167.0724 L9.9574,177.1255 L10.238,187.1786 L10.3188,197.2317 L10.7809,207.2848 L10.8947,217.3379 L10.9057,227.391 L10.3395,237.4441 L10.6181,247.4971 L10.9363,257.5502 L9.0384,267.6033 L10.9047,277.6564 L9.6047,287.7095 L10.7117,297.7626 L9.34,307.8157 L9.9087,317.8688 L10.9888,327.9219 L9.935,337.975 L10.1404,348.0281 L10.4515,358.0812 L10.555,368.1343 L9.9948,378.1874 L10.383,388.2405 L9.2368,398.2936 L10.3792,408.3467 L10.7309,418.3998 L10.5927,428.4529 L10.8174,438.506 L9.3559,448.5591 L10,458.6122 " fill="none" style="stroke: #000000; stroke-width: 2.0;"/><path d="M83,16.276 L83.2802,16.276 L82.4476,26.329 L83.2577,36.3821 L83.5329,46.4352 L82.0488,56.4883 L82.8964,66.5414 L82.4313,76.5945 L82.4887,86.6476 L82.9091,96.7007 L82.0782,106.7538 L83.7382,116.8069 L82.1596,126.86 L82.7363,136.9131 L83.5759,146.9662 L82.8856,157.0193 L83.091,167.0724 L82.9574,177.1255 L83.238,187.1786 L83.3188,197.2317 L83.7809,207.2848 L83.8947,217.3379 L83.9057,227.391 L83.3395,237.4441 L83.6181,247.4971 L83.9363,257.5502 L82.0384,267.6033 L83.9047,277.6564 L82.6047,287.7095 L83.7117,297.7626 L82.34,307.8157 L82.9087,317.8688 L83.9888,327.9219 L82.935,337.975 L83.1404,348.0281 L83.4515,358.0812 L83.555,368.1343 L82.9948,378.1874 L83.383,388.2405 L82.2368,398.2936 L83.3792,408.3467 L83.7309,418.3998 L83.5927,428.4529 L83.8174,438.506 L82.3559,448.5591 L83,458.6122 " fill="none" style="stroke: #000000; stroke-width: 2.0;"/><path d="M352,16.276 L352.2802,16.276 L351.4476,26.329 L352.2577,36.3821 L352.5329,46.4352 L351.0488,56.4883 L351.8964,66.5414 L351.4313,76.5945 L351.4887,86.6476 L351.9091,96.7007 L351.0782,106.7538 L352.7382,116.8069 L351.1596,126.86 L351.7363,136.9131 L352.5759,146.9662 L351.8856,157.0193 L352.091,167.0724 L351.9574,177.1255 L352.238,187.1786 L352.3188,197.2317 L352.7809,207.2848 L352.8947,217.3379 L352.9057,227.391 L352.3395,237.4441 L352.6181,247.4971 L352.9363,257.5502 L351.0384,267.6033 L352.9047,277.6564 L351.6047,287.7095 L352.7117,297.7626 L351.34,307.8157 L351.9087,317.8688 L352.9888,327.9219 L351.935,337.975 L352.1404,348.0281 L352.4515,358.0812 L352.555,368.1343 L351.9948,378.1874 L352.383,388.2405 L351.2368,398.2936 L352.3792,408.3467 L352.7309,418.3998 L352.5927,428.4529 L352.8174,438.506 L351.3559,448.5591 L352,458.6122 " fill="none" style="stroke: #000000; stroke-width: 2.0;"/><path d="M571,16.276 L571.2802,16.276 L570.4476,26.329 L571.2577,36.3821 L571.5329,46.4352 L570.0488,56.4883 L570.8964,66.5414 L570.4313,76.5945 L570.4887,86.6476 L570.9091,96.7007 L570.0782,106.7538 L571.7382,116.8069 L570.1596,126.86 L570.7363,136.9131 L571.5759,146.9662 L570.8856,157.0193 L571.091,167.0724 L570.9574,177.1255 L571.238,187.1786 L571.3188,197.2317 L571.7809,207.2848 L571.8947,217.3379 L571.9057,227.391 L571.3395,237.4441 L571.6181,247.4971 L571.9363,257.5502 L570.0384,267.6033 L571.9047,277.6564 L570.6047,287.7095 L571.7117,297.7626 L570.34,307.8157 L570.9087,317.8688 L571.9888,327.9219 L570.935,337.975 L571.1404,348.0281 L571.4515,358.0812 L571.555,368.1343 L570.9948,378.1874 L571.383,388.2405 L570.2368,398.2936 L571.3792,408.3467 L571.7309,418.3998 L571.5927,428.4529 L571.8174,438.506 L570.3559,448.5591 L571,458.6122 " fill="none" style="stroke: #000000; stroke-width: 2.0;"/><!--MD5=[95047ad653cb3a38207b3764f768b858]
@startuml
skinparam DefaultFontName "FG Virgil"
skinparam handwritten true
skinparam monochrome true
skinparam packageStyle rect
skinparam shadowing false


 |QM|
  |Dev|
  |Customer|
  start
  repeat
  :add Requirment;
  |Dev|
  fork
    |QM|
    :Review;
    |Dev|
    fork again 
    :ask Customer>
	Detach
	:get response<
  fork again 
  :test;
  fork again
  :deploy;
  end
 |Dev|
  end fork
   |Customer|
     repeat while () is ([open tasks])
->[finished];
|Dev|
stop 
@enduml

PlantUML version 1.2019.11(Sun Sep 22 12:02:15 CEST 2019)
(GPL source distribution)
Java Runtime: Java(TM) SE Runtime Environment
JVM: Java HotSpot(TM) 64-Bit Server VM
Java Version: 11.0.4+10-LTS
Operating System: Windows 10
Default Encoding: Cp1252
Language: de
Country: DE
--></g></svg>