<?xml version="1.0" encoding="UTF-8" standalone="no"?><svg xmlns="http://www.w3.org/2000/svg" xmlns:xlink="http://www.w3.org/1999/xlink" contentScriptType="application/ecmascript" contentStyleType="text/css" height="452px" preserveAspectRatio="none" style="width:568px;height:452px;" version="1.1" viewBox="0 0 568 452" width="568px" zoomAndPan="magnify"><defs><filter height="300%" id="f17kp7sxcvzpei" width="300%" x="-1" y="-1"><feGaussianBlur result="blurOut" stdDeviation="2.0"/><feColorMatrix in="blurOut" result="blurOut2" type="matrix" values="0 0 0 0 0 0 0 0 0 0 0 0 0 0 0 0 0 0 .4 0"/><feOffset dx="4.0" dy="4.0" in="blurOut2" result="blurOut3"/><feBlend in="SourceGraphic" in2="blurOut3" mode="normal"/></filter></defs><g><rect fill="#FEFECE" filter="url(#f17kp7sxcvzpei)" height="35.0938" rx="12.5" ry="12.5" style="stroke: #A80036; stroke-width: 1.5;" width="60" x="20" y="240.2363"/><text fill="#000000" font-family="sans-serif" font-size="12" lengthAdjust="spacingAndGlyphs" textLength="40" x="30" y="262.6934">Review</text><rect fill="#000000" filter="url(#f17kp7sxcvzpei)" height="6" rx="2.5" ry="2.5" style="stroke: #000000; stroke-width: 1.0;" width="248" x="90" y="179.1895"/><polygon fill="#FEFECE" filter="url(#f17kp7sxcvzpei)" points="102,205.1895,200,205.1895,210,222.7363,200,240.2832,102,240.2832" style="stroke: #A80036; stroke-width: 1.5;"/><text fill="#000000" font-family="sans-serif" font-size="12" lengthAdjust="spacingAndGlyphs" textLength="78" x="112" y="227.6465">ask Customer</text><polygon fill="#FEFECE" filter="url(#f17kp7sxcvzpei)" points="104.5,275.2832,207.5,275.2832,197.5,292.8301,207.5,310.377,104.5,310.377" style="stroke: #A80036; stroke-width: 1.5;"/><text fill="#000000" font-family="sans-serif" font-size="12" lengthAdjust="spacingAndGlyphs" textLength="73" x="114.5" y="297.7402">get response</text><rect fill="#FEFECE" filter="url(#f17kp7sxcvzpei)" height="35.0938" rx="12.5" ry="12.5" style="stroke: #A80036; stroke-width: 1.5;" width="40" x="220" y="240.2363"/><text fill="#000000" font-family="sans-serif" font-size="12" lengthAdjust="spacingAndGlyphs" textLength="20" x="230" y="262.6934">test</text><rect fill="#FEFECE" filter="url(#f17kp7sxcvzpei)" height="35.0938" rx="12.5" ry="12.5" style="stroke: #A80036; stroke-width: 1.5;" width="56" x="270" y="212.7363"/><text fill="#000000" font-family="sans-serif" font-size="12" lengthAdjust="spacingAndGlyphs" textLength="36" x="280" y="235.1934">deploy</text><ellipse cx="298" cy="292.8301" fill="#FFFFFF" filter="url(#f17kp7sxcvzpei)" rx="10" ry="10" style="stroke: #000000; stroke-width: 1.5;"/><line style="stroke: #000000; stroke-width: 2.5;" x1="291.8128" x2="304.1872" y1="286.6429" y2="299.0173"/><line style="stroke: #000000; stroke-width: 2.5;" x1="304.1872" x2="291.8128" y1="286.6429" y2="299.0173"/><rect fill="#000000" filter="url(#f17kp7sxcvzpei)" height="6" rx="2.5" ry="2.5" style="stroke: #000000; stroke-width: 1.0;" width="248" x="90" y="330.377"/><ellipse cx="183" cy="429.5869" fill="#FFFFFF" filter="url(#f17kp7sxcvzpei)" rx="11" ry="11" style="stroke: #000000; stroke-width: 1.0;"/><ellipse cx="183" cy="429.5869" fill="#000000" rx="6" ry="6" style="stroke: #7F7F7F; stroke-width: 1.0;"/><ellipse cx="402.5" cy="50.0957" fill="#000000" filter="url(#f17kp7sxcvzpei)" rx="10" ry="10" style="stroke: none; stroke-width: 1.0;"/><rect fill="#FEFECE" filter="url(#f17kp7sxcvzpei)" height="35.0938" rx="12.5" ry="12.5" style="stroke: #A80036; stroke-width: 1.5;" width="109" x="348" y="124.0957"/><text fill="#000000" font-family="sans-serif" font-size="12" lengthAdjust="spacingAndGlyphs" textLength="89" x="358" y="146.5527">add Requirment</text><polygon fill="#FEFECE" filter="url(#f17kp7sxcvzpei)" points="402.5,80.0957,414.5,92.0957,402.5,104.0957,390.5,92.0957,402.5,80.0957" style="stroke: #A80036; stroke-width: 1.5;"/><polygon fill="#FEFECE" filter="url(#f17kp7sxcvzpei)" points="402.5,356.377,402.5,356.377,414.5,368.377,402.5,380.377,402.5,380.377,390.5,368.377,402.5,356.377" style="stroke: #A80036; stroke-width: 1.5;"/><text fill="#000000" font-family="sans-serif" font-size="11" lengthAdjust="spacingAndGlyphs" textLength="59" x="414.5" y="365.96">[open tasks]</text><line style="stroke: #A80036; stroke-width: 1.5;" x1="298" x2="298" y1="247.8301" y2="282.8301"/><polygon fill="#A80036" points="294,272.8301,298,282.8301,302,272.8301,298,276.8301" style="stroke: #A80036; stroke-width: 1.0;"/><line style="stroke: #A80036; stroke-width: 1.5;" x1="151" x2="151" y1="185.1895" y2="205.1895"/><polygon fill="#A80036" points="147,195.1895,151,205.1895,155,195.1895,151,199.1895" style="stroke: #A80036; stroke-width: 1.0;"/><line style="stroke: #A80036; stroke-width: 1.5;" x1="240" x2="240" y1="185.1895" y2="240.2363"/><polygon fill="#A80036" points="236,230.2363,240,240.2363,244,230.2363,240,234.2363" style="stroke: #A80036; stroke-width: 1.0;"/><line style="stroke: #A80036; stroke-width: 1.5;" x1="298" x2="298" y1="185.1895" y2="212.7363"/><polygon fill="#A80036" points="294,202.7363,298,212.7363,302,202.7363,298,206.7363" style="stroke: #A80036; stroke-width: 1.0;"/><line style="stroke: #A80036; stroke-width: 1.5;" x1="151" x2="151" y1="310.377" y2="330.377"/><polygon fill="#A80036" points="147,320.377,151,330.377,155,320.377,151,324.377" style="stroke: #A80036; stroke-width: 1.0;"/><line style="stroke: #A80036; stroke-width: 1.5;" x1="240" x2="240" y1="275.3301" y2="330.377"/><polygon fill="#A80036" points="236,320.377,240,330.377,244,320.377,240,324.377" style="stroke: #A80036; stroke-width: 1.0;"/><line style="stroke: #A80036; stroke-width: 1.5;" x1="402.5" x2="402.5" y1="104.0957" y2="124.0957"/><polygon fill="#A80036" points="398.5,114.0957,402.5,124.0957,406.5,114.0957,402.5,118.0957" style="stroke: #A80036; stroke-width: 1.0;"/><line style="stroke: #A80036; stroke-width: 1.5;" x1="414.5" x2="532.25" y1="368.377" y2="368.377"/><polygon fill="#A80036" points="528.25,232.7363,532.25,222.7363,536.25,232.7363,532.25,228.7363" style="stroke: #A80036; stroke-width: 1.5;"/><line style="stroke: #A80036; stroke-width: 1.5;" x1="532.25" x2="532.25" y1="92.0957" y2="368.377"/><line style="stroke: #A80036; stroke-width: 1.5;" x1="532.25" x2="414.5" y1="92.0957" y2="92.0957"/><polygon fill="#A80036" points="424.5,88.0957,414.5,92.0957,424.5,96.0957,420.5,92.0957" style="stroke: #A80036; stroke-width: 1.0;"/><line style="stroke: #A80036; stroke-width: 1.5;" x1="402.5" x2="402.5" y1="60.0957" y2="80.0957"/><polygon fill="#A80036" points="398.5,70.0957,402.5,80.0957,406.5,70.0957,402.5,74.0957" style="stroke: #A80036; stroke-width: 1.0;"/><line style="stroke: #A80036; stroke-width: 1.5;" x1="97" x2="97" y1="185.1895" y2="189.1895"/><line style="stroke: #A80036; stroke-width: 1.5;" x1="97" x2="50" y1="189.1895" y2="189.1895"/><line style="stroke: #A80036; stroke-width: 1.5;" x1="50" x2="50" y1="189.1895" y2="240.2363"/><polygon fill="#A80036" points="46,230.2363,50,240.2363,54,230.2363,50,234.2363" style="stroke: #A80036; stroke-width: 1.0;"/><line style="stroke: #A80036; stroke-width: 1.5;" x1="50" x2="50" y1="275.3301" y2="316.377"/><line style="stroke: #A80036; stroke-width: 1.5;" x1="50" x2="97" y1="316.377" y2="316.377"/><line style="stroke: #A80036; stroke-width: 1.5;" x1="97" x2="97" y1="316.377" y2="330.377"/><polygon fill="#A80036" points="93,320.377,97,330.377,101,320.377,97,324.377" style="stroke: #A80036; stroke-width: 1.0;"/><line style="stroke: #A80036; stroke-width: 1.5;" x1="402.5" x2="402.5" y1="159.1895" y2="164.1895"/><line style="stroke: #A80036; stroke-width: 1.5;" x1="402.5" x2="183" y1="164.1895" y2="164.1895"/><line style="stroke: #A80036; stroke-width: 1.5;" x1="183" x2="183" y1="164.1895" y2="179.1895"/><polygon fill="#A80036" points="179,169.1895,183,179.1895,187,169.1895,183,173.1895" style="stroke: #A80036; stroke-width: 1.0;"/><line style="stroke: #A80036; stroke-width: 1.5;" x1="183" x2="183" y1="336.377" y2="341.377"/><line style="stroke: #A80036; stroke-width: 1.5;" x1="183" x2="402.5" y1="341.377" y2="341.377"/><line style="stroke: #A80036; stroke-width: 1.5;" x1="402.5" x2="402.5" y1="341.377" y2="356.377"/><polygon fill="#A80036" points="398.5,346.377,402.5,356.377,406.5,346.377,402.5,350.377" style="stroke: #A80036; stroke-width: 1.0;"/><line style="stroke: #A80036; stroke-width: 1.5;" x1="402.5" x2="402.5" y1="380.377" y2="403.5869"/><line style="stroke: #A80036; stroke-width: 1.5;" x1="402.5" x2="183" y1="403.5869" y2="403.5869"/><line style="stroke: #A80036; stroke-width: 1.5;" x1="183" x2="183" y1="403.5869" y2="418.5869"/><polygon fill="#A80036" points="179,408.5869,183,418.5869,187,408.5869,183,412.5869" style="stroke: #A80036; stroke-width: 1.0;"/><text fill="#000000" font-family="sans-serif" font-size="11" lengthAdjust="spacingAndGlyphs" textLength="44" x="406.5" y="397.0869">[finished]</text><text fill="#000000" font-family="sans-serif" font-size="18" lengthAdjust="spacingAndGlyphs" textLength="29" x="35" y="31.1406">QM</text><text fill="#000000" font-family="sans-serif" font-size="18" lengthAdjust="spacingAndGlyphs" textLength="32" x="166.5" y="31.1406">Dev</text><text fill="#000000" font-family="sans-serif" font-size="18" lengthAdjust="spacingAndGlyphs" textLength="77" x="441.25" y="31.1406">Customer</text><line style="stroke: #000000; stroke-width: 2.0;" x1="10" x2="10" y1="12.4551" y2="440.5869"/><line style="stroke: #000000; stroke-width: 2.0;" x1="85" x2="85" y1="12.4551" y2="440.5869"/><line style="stroke: #000000; stroke-width: 2.0;" x1="343" x2="343" y1="12.4551" y2="440.5869"/><line style="stroke: #000000; stroke-width: 2.0;" x1="556.25" x2="556.25" y1="12.4551" y2="440.5869"/><!--MD5=[ec46bb7abc6e94fc50ec3f2c76df16c9]
@startuml
    |QM|
  |Dev|
  |Customer|
  start
  repeat
  :add Requirment;
  |Dev|
  fork
    |QM|
    :Review;
    |Dev|
    fork again 
    :ask Customer>
	Detach
	:get response<
  fork again 
  :test;
  fork again
  :deploy;
  end
 |Dev|
  end fork
   |Customer|
     repeat while () is ([open tasks])
->[finished];
|Dev|
stop 
@enduml

PlantUML version 1.2019.11(Sun Sep 22 12:02:15 CEST 2019)
(GPL source distribution)
Java Runtime: Java(TM) SE Runtime Environment
JVM: Java HotSpot(TM) 64-Bit Server VM
Java Version: 11.0.4+10-LTS
Operating System: Windows 10
Default Encoding: Cp1252
Language: de
Country: DE
--></g></svg>